<svg width="1163" height="729" viewBox="0 0 1163 729" fill="none" xmlns="http://www.w3.org/2000/svg">
<g opacity="0.5">
<rect width="683.629" height="657.812" transform="matrix(0.866025 0.5 -0.866025 0.5 570.486 0.166382)" fill="url(#paint0_linear_2142_323)"/>
<rect width="683.546" height="58.0157" transform="matrix(0.866025 0.5 0 1 0.812988 329.074)" fill="url(#paint1_linear_2142_323)"/>
<rect width="657.661" height="57.843" transform="matrix(0.866025 -0.5 0 1 592.782 670.848)" fill="url(#paint2_linear_2142_323)"/>
</g>
<rect width="596.829" height="574.29" transform="matrix(0.866025 0.5 -0.866025 0.5 571.35 10)" fill="url(#paint3_linear_2142_323)"/>
<rect width="596.757" height="50.6494" transform="matrix(0.866025 0.5 0 1 74.0088 297.147)" fill="url(#paint4_linear_2142_323)"/>
<rect width="574.158" height="50.4987" transform="matrix(0.866025 -0.5 0 1 590.814 595.525)" fill="url(#paint5_linear_2142_323)"/>
<g filter="url(#filter0_d_2142_323)">
<rect width="69.4956" height="154.009" transform="matrix(0.866025 0.5 -0.866025 0.5 554.173 30.9125)" fill="url(#paint6_linear_2142_323)"/>
<rect width="69.4956" height="34.7478" transform="matrix(0.866025 0.5 0 1 420.798 107.917)" fill="url(#paint7_linear_2142_323)"/>
<rect width="154.071" height="34.7478" transform="matrix(0.866025 -0.5 0 1 480.982 142.665)" fill="url(#paint8_linear_2142_323)"/>
<g filter="url(#filter1_d_2142_323)">
<path d="M474.583 116.029C473.55 116.626 472.417 117.021 471.185 117.216C469.953 117.4 468.716 117.386 467.474 117.173C466.232 116.95 465.065 116.522 463.972 115.891C462.879 115.26 462.144 114.589 461.766 113.878C461.389 113.155 461.364 112.441 461.692 111.736C462.02 111.03 462.705 110.376 463.748 109.774C464.792 109.172 465.924 108.776 467.146 108.587C468.378 108.392 469.615 108.406 470.857 108.63C472.099 108.842 473.262 109.261 474.345 109.886C475.438 110.517 476.173 111.194 476.551 111.916C476.938 112.633 476.968 113.35 476.64 114.067C476.312 114.773 475.627 115.427 474.583 116.029ZM472.616 114.893C473.49 114.389 473.868 113.821 473.749 113.19C473.63 112.547 473.028 111.914 471.945 111.288C470.852 110.657 469.764 110.31 468.681 110.247C467.589 110.178 466.6 110.399 465.716 110.91C464.851 111.409 464.474 111.977 464.583 112.613C464.692 113.239 465.293 113.867 466.386 114.498C467.469 115.123 468.562 115.473 469.665 115.547C470.768 115.61 471.752 115.392 472.616 114.893ZM480.797 112.253L470.29 106.187L475.089 103.417C476.261 102.74 477.448 102.381 478.651 102.341C479.853 102.301 480.961 102.573 481.974 103.158C482.759 103.612 483.211 104.108 483.33 104.647C483.45 105.175 483.231 105.708 482.675 106.247C483.36 106.035 484.175 106.006 485.119 106.161L489.933 106.979L487.384 108.45L482.213 107.564C481.795 107.495 481.428 107.495 481.11 107.564C480.782 107.627 480.469 107.744 480.171 107.916L479.038 108.57L483.107 110.919L480.797 112.253ZM477.369 107.607L479.44 106.411C480.682 105.694 480.807 105.048 479.813 104.475C478.829 103.907 477.717 103.982 476.475 104.699L474.403 105.894L477.369 107.607ZM489.152 107.429L483.474 98.5759L485.337 97.5004L500.673 100.778L498.348 102.121L495.084 101.372L490.18 104.203L491.492 106.078L489.152 107.429ZM486.842 99.4707L489.152 102.714L492.52 100.77L486.872 99.4535L486.842 99.4707ZM505.983 97.9019C504.851 98.5558 503.658 98.986 502.406 99.1925C501.154 99.399 499.907 99.3961 498.665 99.1839C497.423 98.9602 496.251 98.53 495.148 97.8933C494.055 97.2624 493.32 96.5913 492.942 95.88C492.565 95.1573 492.555 94.4345 492.913 93.7118C493.27 92.9891 494.015 92.3008 495.148 91.6469C495.844 91.2454 496.619 90.9241 497.473 90.6832C498.328 90.4423 499.147 90.3133 499.932 90.2961L501.05 91.7673C500.255 91.8247 499.55 91.9394 498.934 92.1115C498.318 92.2721 497.761 92.4958 497.265 92.7826C496.261 93.3619 495.794 93.9699 495.864 94.6066C495.933 95.2318 496.509 95.8571 497.592 96.4823C498.675 97.1075 499.763 97.443 500.856 97.4889C501.959 97.5291 503.012 97.2595 504.016 96.6802C504.513 96.3934 504.905 96.075 505.193 95.7251C505.481 95.3638 505.675 94.9536 505.775 94.4948L508.323 95.1401C508.283 95.5875 508.06 96.0607 507.652 96.5597C507.235 97.053 506.679 97.5004 505.983 97.9019ZM510.285 95.2294L499.778 89.1636L502.088 87.83L510.642 92.7687L515.501 89.9638L517.453 91.0909L510.285 95.2294ZM518.217 90.65L507.71 84.5843L514.908 80.4286L516.712 81.4696L511.719 84.352L514.178 85.7716L518.843 83.0786L520.661 84.1283L515.996 86.8213L518.619 88.3356L523.612 85.4533L525.416 86.4943L518.217 90.65Z" fill="white"/>
</g>
</g>
<g filter="url(#filter2_d_2142_323)">
<rect width="69.4956" height="154.009" transform="matrix(0.866025 0.5 -0.866025 0.5 625.468 73.9349)" fill="url(#paint9_linear_2142_323)"/>
<rect width="69.4956" height="34.7478" transform="matrix(0.866025 0.5 0 1 492.092 150.94)" fill="url(#paint10_linear_2142_323)"/>
<rect width="154.071" height="34.7478" transform="matrix(0.866025 -0.5 0 1 552.277 185.687)" fill="url(#paint11_linear_2142_323)"/>
<g filter="url(#filter3_d_2142_323)">
<path d="M531.117 157.551L525.438 148.697L527.301 147.622L542.637 150.9L540.312 152.242L537.048 151.493L532.145 154.324L533.456 156.2L531.117 157.551ZM528.806 149.592L531.117 152.836L534.485 150.891L528.836 149.575L528.806 149.592ZM542.934 150.728L532.427 144.663L534.737 143.329L545.244 149.395L542.934 150.728ZM554.04 163.505C552.907 164.159 551.715 164.589 550.463 164.796C549.211 165.002 547.964 164.999 546.722 164.787C545.48 164.563 544.307 164.133 543.205 163.497C542.112 162.866 541.376 162.195 540.999 161.483C540.621 160.761 540.611 160.038 540.969 159.315C541.327 158.592 542.072 157.904 543.205 157.25C543.9 156.849 544.675 156.527 545.53 156.287C546.384 156.046 547.204 155.917 547.989 155.899L549.106 157.371C548.312 157.428 547.606 157.543 546.99 157.715C546.374 157.875 545.818 158.099 545.321 158.386C544.317 158.965 543.85 159.573 543.92 160.21C543.99 160.835 544.566 161.46 545.649 162.086C546.732 162.711 547.82 163.046 548.913 163.092C550.016 163.132 551.069 162.863 552.072 162.283C552.569 161.997 552.962 161.678 553.25 161.328C553.538 160.967 553.732 160.557 553.831 160.098L556.379 160.743C556.34 161.191 556.116 161.664 555.709 162.163C555.292 162.656 554.735 163.104 554.04 163.505ZM563.015 158.324C561.981 158.92 560.849 159.316 559.617 159.511C558.385 159.695 557.148 159.68 555.906 159.468C554.664 159.245 553.496 158.817 552.403 158.186C551.31 157.555 550.575 156.884 550.197 156.173C549.82 155.45 549.795 154.736 550.123 154.031C550.451 153.325 551.136 152.671 552.18 152.069C553.223 151.467 554.356 151.071 555.578 150.881C556.81 150.686 558.047 150.701 559.289 150.925C560.531 151.137 561.693 151.555 562.776 152.181C563.869 152.812 564.604 153.488 564.982 154.211C565.369 154.928 565.399 155.645 565.071 156.362C564.743 157.068 564.058 157.722 563.015 158.324ZM561.047 157.188C561.922 156.683 562.299 156.116 562.18 155.485C562.061 154.842 561.46 154.208 560.377 153.583C559.284 152.952 558.196 152.605 557.113 152.542C556.02 152.473 555.031 152.694 554.147 153.205C553.283 153.704 552.905 154.271 553.014 154.908C553.124 155.533 553.725 156.161 554.818 156.792C555.901 157.418 556.994 157.768 558.096 157.842C559.199 157.905 560.183 157.687 561.047 157.188ZM569.228 154.548L558.721 148.482L563.52 145.711C564.692 145.035 565.895 144.685 567.127 144.662C568.349 144.633 569.486 144.923 570.54 145.531C571.593 146.139 572.099 146.798 572.06 147.51C572.02 148.221 571.414 148.915 570.241 149.592L567.753 151.029L571.538 153.214L569.228 154.548ZM565.964 149.996L568.066 148.783C569.288 148.077 569.372 147.421 568.319 146.813C567.286 146.216 566.158 146.271 564.936 146.976L562.834 148.189L565.964 149.996ZM578.514 149.187L568.007 143.121L572.806 140.351C573.978 139.674 575.166 139.315 576.368 139.275C577.57 139.235 578.678 139.507 579.691 140.093C580.476 140.546 580.928 141.042 581.048 141.581C581.167 142.109 580.948 142.642 580.392 143.181C581.077 142.969 581.892 142.94 582.836 143.095L587.65 143.913L585.101 145.384L579.93 144.498C579.513 144.429 579.145 144.429 578.827 144.498C578.499 144.561 578.186 144.678 577.888 144.85L576.755 145.504L580.824 147.853L578.514 149.187ZM575.086 144.541L577.158 143.345C578.4 142.628 578.524 141.983 577.53 141.409C576.547 140.841 575.434 140.916 574.192 141.633L572.12 142.829L575.086 144.541ZM593.245 140.872C592.212 141.469 591.079 141.864 589.847 142.059C588.615 142.243 587.378 142.229 586.136 142.016C584.894 141.793 583.726 141.365 582.633 140.734C581.541 140.103 580.805 139.432 580.428 138.721C580.05 137.998 580.025 137.284 580.353 136.579C580.681 135.873 581.367 135.219 582.41 134.617C583.453 134.015 584.586 133.619 585.808 133.43C587.04 133.235 588.277 133.249 589.519 133.473C590.761 133.685 591.923 134.104 593.006 134.729C594.099 135.36 594.835 136.037 595.212 136.759C595.6 137.476 595.629 138.193 595.302 138.91C594.974 139.616 594.288 140.27 593.245 140.872ZM591.278 139.736C592.152 139.231 592.53 138.664 592.41 138.033C592.291 137.39 591.69 136.756 590.607 136.131C589.514 135.5 588.426 135.153 587.343 135.09C586.25 135.021 585.261 135.242 584.377 135.753C583.513 136.252 583.135 136.82 583.244 137.456C583.354 138.081 583.955 138.71 585.048 139.34C586.131 139.966 587.224 140.316 588.327 140.39C589.43 140.453 590.413 140.235 591.278 139.736ZM604.719 134.248C603.587 134.902 602.394 135.332 601.142 135.538C599.89 135.745 598.643 135.742 597.402 135.53C596.16 135.306 594.987 134.876 593.884 134.239C592.791 133.608 592.056 132.937 591.678 132.226C591.301 131.503 591.291 130.78 591.649 130.058C592.006 129.335 592.752 128.647 593.884 127.993C594.58 127.591 595.355 127.27 596.209 127.029C597.064 126.788 597.883 126.659 598.668 126.642L599.786 128.113C598.991 128.171 598.286 128.285 597.67 128.457C597.054 128.618 596.497 128.842 596.001 129.128C594.997 129.708 594.53 130.316 594.6 130.953C594.669 131.578 595.245 132.203 596.328 132.828C597.411 133.453 598.499 133.789 599.592 133.835C600.695 133.875 601.748 133.605 602.752 133.026C603.249 132.739 603.641 132.421 603.929 132.071C604.217 131.71 604.411 131.3 604.511 130.841L607.059 131.486C607.019 131.933 606.796 132.407 606.388 132.906C605.971 133.399 605.415 133.846 604.719 134.248ZM609.021 131.575L598.514 125.51L605.712 121.354L607.515 122.395L602.523 125.277L604.982 126.697L609.647 124.004L611.465 125.054L606.8 127.747L609.423 129.261L614.416 126.379L616.219 127.42L609.021 131.575ZM621.208 124.729C620.383 125.205 619.499 125.595 618.555 125.899C617.621 126.198 616.731 126.384 615.887 126.459L614.739 125.022C615.534 124.941 616.324 124.784 617.109 124.548C617.904 124.308 618.629 123.998 619.285 123.619C620 123.206 620.403 122.848 620.492 122.544C620.582 122.228 620.457 121.973 620.12 121.778C619.831 121.612 619.494 121.543 619.106 121.571C618.719 121.6 618.192 121.738 617.526 121.984L615.485 122.75C613.209 123.605 611.297 123.585 609.747 122.69C609.081 122.306 608.678 121.867 608.539 121.374C608.39 120.875 608.495 120.361 608.852 119.834C609.22 119.3 609.826 118.79 610.671 118.302C611.396 117.883 612.181 117.551 613.025 117.304C613.87 117.057 614.69 116.923 615.485 116.9L616.513 118.268C615.052 118.365 613.741 118.749 612.578 119.421C611.952 119.782 611.59 120.135 611.49 120.479C611.391 120.811 611.535 121.09 611.923 121.313C612.211 121.48 612.548 121.554 612.936 121.537C613.323 121.52 613.83 121.394 614.456 121.159L616.498 120.393C618.843 119.521 620.751 119.509 622.221 120.358C622.877 120.737 623.274 121.173 623.413 121.666C623.552 122.148 623.438 122.656 623.071 123.189C622.703 123.711 622.082 124.224 621.208 124.729ZM630.144 119.57C629.32 120.046 628.435 120.436 627.491 120.74C626.557 121.038 625.668 121.225 624.824 121.299L623.676 119.863C624.471 119.782 625.261 119.624 626.046 119.389C626.841 119.148 627.566 118.839 628.222 118.46C628.937 118.047 629.339 117.689 629.429 117.385C629.518 117.069 629.394 116.814 629.056 116.619C628.768 116.453 628.43 116.384 628.043 116.412C627.655 116.441 627.129 116.579 626.463 116.825L624.421 117.591C622.146 118.446 620.233 118.426 618.683 117.531C618.018 117.147 617.615 116.708 617.476 116.214C617.327 115.715 617.431 115.202 617.789 114.674C618.157 114.141 618.763 113.63 619.607 113.143C620.333 112.724 621.118 112.391 621.962 112.145C622.807 111.898 623.626 111.763 624.421 111.74L625.45 113.108C623.989 113.206 622.677 113.59 621.515 114.261C620.889 114.623 620.526 114.976 620.427 115.32C620.328 115.652 620.472 115.931 620.859 116.154C621.147 116.321 621.485 116.395 621.873 116.378C622.26 116.361 622.767 116.235 623.393 115.999L625.435 115.234C627.779 114.362 629.687 114.35 631.158 115.199C631.813 115.578 632.211 116.014 632.35 116.507C632.489 116.989 632.375 117.496 632.007 118.03C631.64 118.552 631.019 119.065 630.144 119.57ZM640.199 113.766C639.165 114.362 638.033 114.758 636.801 114.953C635.569 115.136 634.332 115.122 633.09 114.91C631.848 114.686 630.68 114.259 629.587 113.628C628.494 112.997 627.759 112.326 627.381 111.615C627.004 110.892 626.979 110.178 627.307 109.472C627.635 108.767 628.32 108.113 629.364 107.511C630.407 106.908 631.54 106.512 632.762 106.323C633.994 106.128 635.231 106.143 636.473 106.366C637.715 106.578 638.877 106.997 639.96 107.622C641.053 108.253 641.788 108.93 642.166 109.653C642.553 110.37 642.583 111.087 642.255 111.804C641.927 112.509 641.242 113.163 640.199 113.766ZM638.231 112.63C639.106 112.125 639.483 111.557 639.364 110.926C639.245 110.284 638.644 109.65 637.561 109.025C636.468 108.394 635.38 108.047 634.297 107.984C633.204 107.915 632.215 108.136 631.331 108.646C630.466 109.145 630.089 109.713 630.198 110.35C630.308 110.975 630.909 111.603 632.002 112.234C633.085 112.859 634.178 113.209 635.28 113.284C636.383 113.347 637.367 113.129 638.231 112.63ZM646.412 109.989L635.905 103.924L640.704 101.153C641.876 100.476 643.064 100.118 644.266 100.078C645.468 100.037 646.576 100.31 647.589 100.895C648.374 101.348 648.826 101.844 648.946 102.383C649.065 102.911 648.846 103.445 648.29 103.984C648.975 103.772 649.79 103.743 650.734 103.898L655.548 104.715L652.999 106.186L647.828 105.3C647.411 105.231 647.043 105.231 646.725 105.3C646.397 105.363 646.084 105.481 645.786 105.653L644.653 106.307L648.722 108.656L646.412 109.989ZM642.984 105.343L645.056 104.147C646.298 103.43 646.422 102.785 645.428 102.211C644.445 101.644 643.332 101.718 642.09 102.435L640.018 103.631L642.984 105.343Z" fill="white"/>
</g>
</g>
<g filter="url(#filter4_d_2142_323)">
<rect width="69.4956" height="154.009" transform="matrix(0.866025 0.5 -0.866025 0.5 414.627 112.567)" fill="url(#paint12_linear_2142_323)"/>
<rect width="69.4956" height="34.7478" transform="matrix(0.866025 0.5 0 1 281.252 189.572)" fill="url(#paint13_linear_2142_323)"/>
<rect width="154.071" height="34.7478" transform="matrix(0.866025 -0.5 0 1 341.437 224.319)" fill="url(#paint14_linear_2142_323)"/>
<g filter="url(#filter5_d_2142_323)">
<path d="M329.999 200.403L319.492 194.337L324.306 191.558C325.429 190.91 326.536 190.551 327.629 190.482C328.732 190.408 329.706 190.614 330.55 191.102C331.107 191.423 331.45 191.781 331.579 192.177C331.698 192.567 331.609 192.963 331.311 193.365C332.076 193.118 332.831 193.026 333.576 193.089C334.331 193.147 335.022 193.356 335.648 193.717C336.582 194.256 336.984 194.867 336.855 195.55C336.726 196.221 336.1 196.881 334.977 197.529L329.999 200.403ZM326.02 195.559L328.225 194.285C329.358 193.631 329.487 193.052 328.613 192.547C327.749 192.048 326.75 192.126 325.617 192.779L323.412 194.053L326.02 195.559ZM330.491 198.14L332.95 196.72C333.546 196.376 333.869 196.058 333.919 195.765C333.968 195.473 333.76 195.191 333.293 194.922C332.836 194.658 332.354 194.54 331.847 194.569C331.34 194.598 330.789 194.784 330.193 195.128L327.734 196.548L330.491 198.14ZM339.751 194.773L329.244 188.707L334.043 185.937C335.215 185.26 336.402 184.901 337.605 184.861C338.807 184.821 339.915 185.093 340.928 185.679C341.713 186.132 342.165 186.628 342.284 187.167C342.404 187.695 342.185 188.228 341.629 188.767C342.314 188.555 343.129 188.526 344.073 188.681L348.887 189.499L346.338 190.97L341.167 190.084C340.749 190.015 340.382 190.015 340.064 190.084C339.736 190.147 339.423 190.264 339.125 190.437L337.992 191.09L342.061 193.439L339.751 194.773ZM336.323 190.127L338.394 188.931C339.636 188.214 339.761 187.569 338.767 186.995C337.783 186.427 336.671 186.502 335.429 187.219L333.357 188.415L336.323 190.127ZM349.517 189.135L339.01 183.069L341.32 181.735L351.827 187.801L349.517 189.135ZM353.316 186.942L342.809 180.876L346.922 178.501C348.711 177.469 350.554 176.932 352.451 176.892C354.339 176.846 356.123 177.308 357.802 178.278C359.481 179.247 360.286 180.279 360.216 181.375C360.147 182.471 359.218 183.535 357.429 184.567L353.316 186.942ZM353.733 184.515L355.402 183.552C357.638 182.261 357.633 180.968 355.388 179.671C353.152 178.381 350.916 178.381 348.681 179.671L347.012 180.635L353.733 184.515ZM369.612 177.723C368.429 178.406 367.202 178.856 365.931 179.074C364.669 179.286 363.422 179.284 362.19 179.066C360.958 178.848 359.8 178.426 358.717 177.801C357.604 177.158 356.859 176.476 356.482 175.753C356.114 175.025 356.124 174.29 356.511 173.55C356.899 172.811 357.679 172.102 358.851 171.425C359.587 171.001 360.386 170.66 361.251 170.401C362.125 170.138 362.945 169.986 363.71 169.945L364.768 171.417C363.973 171.486 363.268 171.617 362.652 171.812C362.026 172.002 361.435 172.257 360.878 172.578C359.815 173.192 359.313 173.826 359.373 174.48C359.433 175.122 360.019 175.765 361.132 176.407C362.254 177.055 363.372 177.391 364.485 177.414C365.608 177.431 366.701 177.133 367.764 176.519C368.33 176.192 368.837 175.796 369.284 175.331L367.227 174.144L364.962 175.452L363.293 174.488L367.466 172.079L372.622 175.056C372.364 175.504 371.967 175.962 371.43 176.433C370.894 176.903 370.287 177.333 369.612 177.723ZM374.697 174.599L364.19 168.533L371.388 164.377L373.192 165.418L368.199 168.3L370.658 169.72L375.323 167.027L377.141 168.077L372.476 170.77L375.099 172.284L380.092 169.402L381.895 170.443L374.697 174.599Z" fill="white"/>
</g>
</g>
<g filter="url(#filter6_d_2142_323)">
<rect width="69.4956" height="154.009" transform="matrix(0.866025 0.5 -0.866025 0.5 485.922 155.59)" fill="url(#paint15_linear_2142_323)"/>
<rect width="69.4956" height="34.7478" transform="matrix(0.866025 0.5 0 1 352.547 232.594)" fill="url(#paint16_linear_2142_323)"/>
<rect width="154.071" height="34.7478" transform="matrix(0.866025 -0.5 0 1 412.732 267.342)" fill="url(#paint17_linear_2142_323)"/>
<g filter="url(#filter7_d_2142_323)">
<path d="M392.405 238.723L390.706 237.743L389.067 230.739L383.821 233.768L381.898 232.658L389.842 228.072L391.541 229.053L393.165 236.065L398.65 232.899L400.572 234.009L392.405 238.723ZM401.336 233.568L390.829 227.502L393.139 226.168L397.714 228.81L397.744 228.793L397.536 223.63L400.308 222.03L400.442 227.751L411.023 227.975L408.222 229.593L398.877 229.446L398.847 229.464L403.646 232.234L401.336 233.568ZM409.233 248.008L398.726 241.942L403.525 239.172C404.697 238.495 405.899 238.145 407.131 238.122C408.353 238.093 409.491 238.383 410.544 238.991C411.597 239.599 412.104 240.258 412.064 240.97C412.025 241.681 411.419 242.375 410.246 243.052L407.757 244.489L411.543 246.674L409.233 248.008ZM405.969 243.456L408.07 242.243C409.292 241.538 409.377 240.881 408.324 240.273C407.29 239.676 406.163 239.731 404.94 240.436L402.839 241.649L405.969 243.456ZM418.519 242.647L408.011 236.581L412.811 233.811C413.983 233.134 415.17 232.775 416.372 232.735C417.575 232.695 418.683 232.968 419.696 233.553C420.481 234.006 420.933 234.502 421.052 235.041C421.171 235.569 420.953 236.102 420.396 236.641C421.082 236.429 421.897 236.401 422.841 236.555L427.655 237.373L425.106 238.844L419.934 237.958C419.517 237.889 419.15 237.889 418.832 237.958C418.504 238.021 418.191 238.139 417.893 238.311L416.76 238.965L420.829 241.313L418.519 242.647ZM415.091 238.001L417.162 236.805C418.404 236.088 418.529 235.443 417.535 234.869C416.551 234.301 415.439 234.376 414.197 235.093L412.125 236.289L415.091 238.001ZM433.25 234.332C432.216 234.929 431.084 235.324 429.852 235.519C428.619 235.703 427.382 235.689 426.14 235.476C424.899 235.253 423.731 234.825 422.638 234.194C421.545 233.563 420.81 232.892 420.432 232.181C420.055 231.458 420.03 230.744 420.358 230.039C420.686 229.333 421.371 228.679 422.415 228.077C423.458 227.475 424.591 227.079 425.813 226.89C427.045 226.695 428.282 226.709 429.524 226.933C430.766 227.145 431.928 227.564 433.011 228.189C434.104 228.82 434.839 229.497 435.217 230.219C435.604 230.936 435.634 231.653 435.306 232.37C434.978 233.076 434.293 233.73 433.25 234.332ZM431.282 233.196C432.157 232.692 432.534 232.124 432.415 231.493C432.296 230.85 431.695 230.217 430.612 229.591C429.519 228.96 428.431 228.613 427.348 228.55C426.255 228.481 425.266 228.702 424.382 229.213C423.517 229.712 423.14 230.28 423.249 230.916C423.358 231.542 423.96 232.17 425.053 232.801C426.136 233.426 427.228 233.776 428.331 233.85C429.434 233.913 430.418 233.695 431.282 233.196ZM442.599 228.745L427.368 225.407L429.842 223.979L440.632 226.457L436.34 220.227L438.709 218.859L444.492 227.652L442.599 228.745ZM449.404 224.817L438.897 218.751L446.095 214.596L447.899 215.637L442.906 218.519L445.365 219.939L450.03 217.246L451.848 218.295L447.183 220.988L449.806 222.503L454.799 219.62L456.602 220.661L449.404 224.817ZM457.817 219.96L447.309 213.895L452.108 211.124C453.281 210.447 454.468 210.089 455.67 210.049C456.873 210.008 457.98 210.281 458.994 210.866C459.779 211.319 460.231 211.815 460.35 212.354C460.469 212.882 460.251 213.416 459.694 213.955C460.38 213.743 461.195 213.714 462.139 213.869L466.952 214.686L464.404 216.157L459.232 215.271C458.815 215.202 458.447 215.202 458.129 215.271C457.802 215.334 457.489 215.452 457.191 215.624L456.058 216.278L460.127 218.627L457.817 219.96ZM454.389 215.314L456.46 214.118C457.702 213.401 457.826 212.756 456.833 212.182C455.849 211.615 454.736 211.689 453.494 212.406L451.423 213.602L454.389 215.314Z" fill="white"/>
</g>
</g>
<g filter="url(#filter8_d_2142_323)">
<rect width="69.4956" height="154.009" transform="matrix(0.866025 0.5 -0.866025 0.5 274.95 192.994)" fill="url(#paint18_linear_2142_323)"/>
<rect width="69.4956" height="34.7478" transform="matrix(0.866025 0.5 0 1 141.575 269.998)" fill="url(#paint19_linear_2142_323)"/>
<rect width="154.071" height="34.7478" transform="matrix(0.866025 -0.5 0 1 201.76 304.746)" fill="url(#paint20_linear_2142_323)"/>
<g filter="url(#filter9_d_2142_323)">
<path d="M190.322 280.829L179.815 274.763L187.014 270.607L188.817 271.648L183.824 274.531L186.283 275.95L190.948 273.257L192.766 274.307L188.102 277L190.725 278.514L195.717 275.632L197.521 276.673L190.322 280.829ZM197.41 276.737L195.964 270.826L196.992 271.42L187.022 270.603L189.704 269.054L196.62 269.691L195.874 270.121L194.757 266.137L197.454 264.58L198.855 270.345L197.827 269.751L208.066 270.586L205.368 272.143L198.199 271.48L198.96 271.042L200.122 275.171L197.41 276.737ZM213.107 267.864C211.975 268.518 210.782 268.948 209.53 269.155C208.278 269.361 207.032 269.359 205.79 269.146C204.548 268.923 203.375 268.492 202.272 267.856C201.169 267.219 200.429 266.545 200.052 265.834C199.684 265.117 199.679 264.397 200.037 263.674C200.394 262.951 201.14 262.263 202.272 261.609C202.968 261.208 203.743 260.887 204.597 260.646C205.452 260.405 206.271 260.276 207.056 260.258L208.174 261.73C207.379 261.787 206.674 261.902 206.058 262.074C205.442 262.234 204.885 262.458 204.389 262.745C203.395 263.319 202.933 263.924 203.003 264.56C203.062 265.191 203.633 265.819 204.716 266.445C205.799 267.07 206.892 267.403 207.995 267.443C209.098 267.483 210.146 267.216 211.14 266.643C211.637 266.356 212.029 266.037 212.317 265.688C212.606 265.326 212.799 264.916 212.899 264.457L215.447 265.102C215.417 265.556 215.194 266.029 214.776 266.522C214.359 267.015 213.803 267.463 213.107 267.864ZM217.409 265.192L206.902 259.126L209.212 257.792L213.429 260.227L218.318 257.405L214.1 254.97L216.41 253.637L226.917 259.702L224.607 261.036L220.24 258.515L215.352 261.337L219.719 263.858L217.409 265.192ZM227.219 259.528L221.541 250.675L223.404 249.599L238.74 252.877L236.415 254.219L232.242 253.256L233.807 253.092L227.592 256.68L227.875 255.777L229.559 258.177L227.219 259.528ZM224.909 251.569L227.547 255.295L226.564 255.192L231.229 252.499L231.407 253.067L224.939 251.552L224.909 251.569ZM239.037 252.706L228.53 246.64L230.244 245.651L243.091 246.545L242.688 246.778L235.49 242.622L237.636 241.383L248.143 247.449L246.444 248.43L233.582 247.526L233.97 247.302L241.183 251.467L239.037 252.706ZM255.013 243.672C253.83 244.355 252.603 244.805 251.332 245.023C250.07 245.235 248.823 245.232 247.591 245.014C246.359 244.796 245.201 244.375 244.118 243.75C243.005 243.107 242.26 242.425 241.883 241.702C241.515 240.973 241.525 240.239 241.912 239.499C242.31 238.754 243.09 238.045 244.252 237.374C244.749 237.087 245.276 236.841 245.832 236.634C246.379 236.422 246.93 236.253 247.486 236.127C248.053 235.995 248.594 235.917 249.111 235.894L250.169 237.366C249.374 237.434 248.669 237.566 248.053 237.761C247.427 237.951 246.836 238.206 246.279 238.527C245.216 239.141 244.709 239.772 244.759 240.42C244.819 241.062 245.41 241.708 246.533 242.356C247.655 243.004 248.773 243.34 249.886 243.362C251.009 243.38 252.102 243.081 253.165 242.468C253.522 242.261 253.855 242.029 254.163 241.771C254.471 241.513 254.745 241.24 254.983 240.953L255.49 241.745L252.628 240.093L250.363 241.401L248.694 240.437L252.867 238.028L258.023 241.005C257.854 241.298 257.616 241.602 257.308 241.917C257.01 242.227 256.662 242.531 256.265 242.829C255.877 243.133 255.46 243.414 255.013 243.672ZM260.098 240.547L249.591 234.482L256.789 230.326L258.593 231.367L253.6 234.249L256.059 235.669L260.724 232.976L262.542 234.026L257.877 236.719L260.5 238.233L265.493 235.351L267.296 236.392L260.098 240.547Z" fill="white"/>
</g>
</g>
<g filter="url(#filter10_d_2142_323)">
<rect width="69.4956" height="154.009" transform="matrix(0.866025 0.5 -0.866025 0.5 346.244 236.017)" fill="url(#paint21_linear_2142_323)"/>
<rect width="69.4956" height="34.7478" transform="matrix(0.866025 0.5 0 1 212.869 313.021)" fill="url(#paint22_linear_2142_323)"/>
<rect width="154.071" height="34.7478" transform="matrix(0.866025 -0.5 0 1 273.054 347.769)" fill="url(#paint23_linear_2142_323)"/>
<g filter="url(#filter11_d_2142_323)">
<path d="M256.876 316.778C256.329 317.094 255.748 317.372 255.132 317.613C254.536 317.854 253.935 318.052 253.329 318.207C252.713 318.356 252.121 318.456 251.555 318.508L250.408 317.071C250.944 317.014 251.476 316.925 252.002 316.804C252.529 316.684 253.045 316.529 253.552 316.34C254.049 316.145 254.516 315.921 254.953 315.669C255.678 315.25 256.086 314.888 256.175 314.584C256.255 314.275 256.126 314.022 255.788 313.827C255.599 313.718 255.385 313.652 255.147 313.629C254.918 313.601 254.645 313.621 254.327 313.69C254.009 313.747 253.632 313.862 253.195 314.034L251.153 314.8C250 315.235 248.952 315.451 248.008 315.445C247.064 315.428 246.2 315.192 245.415 314.739C244.739 314.349 244.332 313.908 244.193 313.414C244.063 312.915 244.178 312.402 244.535 311.874C244.903 311.341 245.504 310.833 246.339 310.351C246.826 310.07 247.342 309.829 247.889 309.629C248.425 309.422 248.972 309.262 249.528 309.147C250.085 309.032 250.626 308.966 251.153 308.949L252.181 310.317C251.466 310.363 250.78 310.483 250.124 310.678C249.459 310.868 248.833 311.131 248.246 311.47C247.829 311.711 247.526 311.949 247.337 312.184C247.159 312.413 247.089 312.631 247.129 312.838C247.178 313.039 247.332 313.214 247.591 313.363C247.879 313.529 248.217 313.604 248.604 313.586C248.992 313.569 249.498 313.443 250.124 313.208L252.166 312.442C253.349 312 254.412 311.777 255.356 311.771C256.29 311.76 257.134 311.972 257.889 312.408C258.545 312.786 258.942 313.222 259.081 313.715C259.221 314.197 259.106 314.705 258.739 315.238C258.371 315.76 257.75 316.274 256.876 316.778ZM261.893 313.693L251.386 307.627L253.696 306.294L257.913 308.728L262.802 305.906L258.584 303.471L260.894 302.138L271.401 308.204L269.091 309.537L264.724 307.016L259.836 309.838L264.203 312.359L261.893 313.693ZM271.703 308.029L266.025 299.176L267.888 298.1L283.224 301.378L280.899 302.721L276.726 301.757L278.291 301.593L272.076 305.181L272.359 304.278L274.043 306.678L271.703 308.029ZM269.393 300.071L272.031 303.796L271.048 303.693L275.713 301L275.891 301.568L269.423 300.053L269.393 300.071ZM283.521 301.207L273.014 295.141L277.813 292.371C278.985 291.694 280.173 291.335 281.375 291.295C282.577 291.255 283.685 291.527 284.698 292.112C285.354 292.491 285.776 292.901 285.965 293.343C286.154 293.785 286.104 294.238 285.816 294.702C285.538 295.161 285.006 295.617 284.222 296.07L284.087 295.855L284.698 295.502C285.116 295.262 285.583 295.112 286.099 295.055C286.616 294.986 287.197 295.006 287.843 295.115L292.657 295.933L290.108 297.404L284.937 296.518C284.659 296.472 284.405 296.457 284.177 296.475C283.938 296.486 283.715 296.529 283.506 296.604C283.297 296.667 283.094 296.756 282.895 296.87L281.762 297.524L285.831 299.873L283.521 301.207ZM280.093 296.561L282.165 295.365C282.781 295.009 283.119 294.671 283.178 294.35C283.248 294.023 283.034 293.716 282.537 293.429C282.051 293.148 281.524 293.027 280.958 293.068C280.401 293.102 279.815 293.297 279.199 293.653L277.127 294.849L280.093 296.561ZM293.287 295.569L282.78 289.503L289.979 285.347L291.782 286.388L286.789 289.271L289.248 290.69L293.913 287.997L295.732 289.047L291.067 291.74L293.69 293.254L298.682 290.372L300.486 291.413L293.287 295.569ZM301.7 290.712L291.193 284.646L295.306 282.272C296.499 281.583 297.721 281.119 298.973 280.878C300.225 280.625 301.462 280.6 302.684 280.8C303.906 280.99 305.073 281.406 306.186 282.048C307.299 282.69 308.024 283.367 308.362 284.079C308.71 284.784 308.67 285.501 308.243 286.229C307.815 286.946 307.006 287.649 305.813 288.337L301.7 290.712ZM302.117 288.286L303.787 287.322C304.909 286.674 305.471 286.029 305.471 285.386C305.471 284.744 304.904 284.096 303.772 283.442C302.639 282.788 301.516 282.467 300.403 282.478C299.291 282.478 298.178 282.799 297.065 283.442L295.396 284.405L302.117 288.286ZM273.331 326.278C272.784 326.593 272.203 326.872 271.587 327.112C270.991 327.353 270.39 327.551 269.783 327.706C269.167 327.855 268.576 327.956 268.01 328.007L266.862 326.57C267.399 326.513 267.93 326.424 268.457 326.304C268.984 326.183 269.5 326.028 270.007 325.839C270.504 325.644 270.971 325.42 271.408 325.168C272.133 324.749 272.541 324.388 272.63 324.084C272.71 323.774 272.58 323.522 272.243 323.327C272.054 323.218 271.84 323.152 271.602 323.129C271.373 323.1 271.1 323.12 270.782 323.189C270.464 323.246 270.087 323.361 269.649 323.533L267.608 324.299C266.455 324.735 265.407 324.95 264.463 324.944C263.519 324.927 262.655 324.692 261.87 324.239C261.194 323.849 260.787 323.407 260.648 322.914C260.518 322.415 260.633 321.901 260.99 321.374C261.358 320.84 261.959 320.333 262.794 319.851C263.28 319.57 263.797 319.329 264.344 319.128C264.88 318.921 265.427 318.761 265.983 318.646C266.539 318.531 267.081 318.465 267.608 318.448L268.636 319.816C267.921 319.862 267.235 319.983 266.579 320.178C265.913 320.367 265.288 320.631 264.701 320.969C264.284 321.21 263.981 321.448 263.792 321.683C263.613 321.913 263.544 322.131 263.584 322.337C263.633 322.538 263.787 322.713 264.046 322.862C264.334 323.028 264.672 323.103 265.059 323.086C265.447 323.069 265.953 322.942 266.579 322.707L268.621 321.941C269.803 321.5 270.866 321.276 271.81 321.27C272.744 321.259 273.589 321.471 274.344 321.907C275 322.286 275.397 322.722 275.536 323.215C275.675 323.697 275.561 324.204 275.194 324.738C274.826 325.26 274.205 325.773 273.331 326.278ZM278.348 323.192L267.84 317.126L275.039 312.971L276.842 314.012L271.85 316.894L274.309 318.314L278.974 315.621L280.792 316.67L276.127 319.364L278.75 320.878L283.743 317.995L285.546 319.037L278.348 323.192ZM292.021 315.488C290.889 316.142 289.696 316.572 288.444 316.778C287.192 316.985 285.945 316.982 284.704 316.77C283.462 316.546 282.289 316.116 281.186 315.479C280.083 314.842 279.343 314.168 278.966 313.457C278.598 312.74 278.593 312.02 278.951 311.298C279.308 310.575 280.054 309.887 281.186 309.233C281.882 308.831 282.657 308.51 283.511 308.269C284.366 308.028 285.185 307.899 285.97 307.882L287.088 309.353C286.293 309.41 285.588 309.525 284.972 309.697C284.356 309.858 283.799 310.082 283.303 310.368C282.309 310.942 281.847 311.547 281.917 312.184C281.976 312.815 282.547 313.443 283.63 314.068C284.713 314.693 285.806 315.026 286.909 315.066C288.012 315.106 289.06 314.84 290.054 314.266C290.551 313.979 290.943 313.661 291.231 313.311C291.519 312.95 291.713 312.539 291.813 312.081L294.361 312.726C294.331 313.179 294.108 313.652 293.69 314.146C293.273 314.639 292.717 315.086 292.021 315.488ZM300.988 310.311C299.497 311.172 297.977 311.608 296.427 311.619C294.887 311.625 293.362 311.192 291.852 310.32L285.741 306.792L288.051 305.459L294.177 308.995C295.031 309.488 295.871 309.749 296.695 309.778C297.51 309.801 298.285 309.6 299.02 309.176C299.756 308.751 300.098 308.307 300.049 307.842C299.999 307.366 299.547 306.881 298.692 306.388L292.567 302.852L294.847 301.535L300.958 305.063C302.468 305.935 303.223 306.813 303.223 307.696C303.223 308.579 302.478 309.451 300.988 310.311ZM306.788 306.774L296.28 300.708L301.079 297.938C302.252 297.261 303.439 296.902 304.641 296.862C305.844 296.822 306.952 297.094 307.965 297.679C308.621 298.058 309.043 298.468 309.232 298.91C309.421 299.352 309.371 299.805 309.083 300.269C308.805 300.728 308.273 301.184 307.488 301.637L307.354 301.422L307.965 301.069C308.382 300.829 308.849 300.679 309.366 300.622C309.883 300.553 310.464 300.573 311.11 300.682L315.924 301.5L313.375 302.971L308.203 302.085C307.925 302.039 307.672 302.024 307.443 302.042C307.205 302.053 306.981 302.096 306.773 302.171C306.564 302.234 306.36 302.323 306.162 302.437L305.029 303.091L309.098 305.44L306.788 306.774ZM303.36 302.128L305.431 300.932C306.047 300.576 306.385 300.238 306.445 299.916C306.514 299.59 306.301 299.283 305.804 298.996C305.317 298.715 304.79 298.594 304.224 298.635C303.668 298.669 303.082 298.864 302.466 299.22L300.394 300.416L303.36 302.128ZM316.554 301.136L306.047 295.07L308.357 293.736L318.864 299.802L316.554 301.136ZM322.857 297.497L314.257 292.533L310.785 294.537L308.877 293.436L318.132 288.093L320.04 289.194L316.567 291.199L325.167 296.164L322.857 297.497ZM331.866 292.296L326.471 289.182L328.274 289.672L317.305 288.571L319.987 287.022L326.843 287.745L326.366 288.02L325.114 284.062L327.693 282.574L329.645 288.88L328.781 287.848L334.176 290.963L331.866 292.296Z" fill="white"/>
</g>
</g>
<g filter="url(#filter12_d_2142_323)">
<rect width="69.4956" height="476.509" transform="matrix(0.866025 0.5 -0.866025 0.5 698.434 118.851)" fill="url(#paint24_linear_2142_323)"/>
<rect width="69.4956" height="34.7478" transform="matrix(0.866025 0.5 0 1 285.765 357.105)" fill="url(#paint25_linear_2142_323)"/>
<rect width="476.542" height="34.7478" transform="matrix(0.866025 -0.5 0 1 345.949 391.853)" fill="url(#paint26_linear_2142_323)"/>
<g filter="url(#filter13_d_2142_323)">
<path d="M338.432 365.862C337.885 366.178 337.304 366.456 336.688 366.697C336.092 366.938 335.491 367.136 334.885 367.29C334.269 367.44 333.678 367.54 333.111 367.592L331.964 366.155C332.5 366.097 333.032 366.008 333.558 365.888C334.085 365.768 334.602 365.613 335.108 365.423C335.605 365.228 336.072 365.005 336.509 364.752C337.235 364.334 337.642 363.972 337.731 363.668C337.811 363.358 337.682 363.106 337.344 362.911C337.155 362.802 336.942 362.736 336.703 362.713C336.475 362.684 336.201 362.705 335.883 362.773C335.565 362.831 335.188 362.945 334.751 363.118L332.709 363.883C331.556 364.319 330.508 364.534 329.564 364.529C328.62 364.511 327.756 364.276 326.971 363.823C326.295 363.433 325.888 362.991 325.749 362.498C325.62 361.999 325.734 361.486 326.092 360.958C326.459 360.425 327.06 359.917 327.895 359.435C328.382 359.154 328.898 358.913 329.445 358.712C329.981 358.506 330.528 358.345 331.084 358.231C331.641 358.116 332.182 358.05 332.709 358.033L333.737 359.401C333.022 359.447 332.336 359.567 331.68 359.762C331.015 359.951 330.389 360.215 329.803 360.554C329.385 360.794 329.082 361.033 328.894 361.268C328.715 361.497 328.645 361.715 328.685 361.922C328.735 362.122 328.889 362.297 329.147 362.446C329.435 362.613 329.773 362.687 330.16 362.67C330.548 362.653 331.055 362.527 331.68 362.292L333.722 361.526C334.905 361.084 335.968 360.86 336.912 360.855C337.846 360.843 338.69 361.055 339.445 361.491C340.101 361.87 340.499 362.306 340.638 362.799C340.777 363.281 340.662 363.789 340.295 364.322C339.927 364.844 339.306 365.357 338.432 365.862ZM343.449 362.777L332.942 356.711L337.741 353.94C338.526 353.487 339.325 353.18 340.14 353.02C340.955 352.859 341.75 352.842 342.525 352.968C343.31 353.089 344.055 353.352 344.76 353.76C345.466 354.167 345.928 354.6 346.146 355.059C346.365 355.506 346.335 355.965 346.057 356.436C345.779 356.906 345.247 357.368 344.462 357.821L341.973 359.258L345.759 361.443L343.449 362.777ZM340.185 358.225L342.286 357.012C342.883 356.668 343.2 356.329 343.24 355.997C343.29 355.658 343.056 355.34 342.54 355.042C342.023 354.743 341.477 354.611 340.9 354.646C340.334 354.675 339.753 354.861 339.157 355.205L337.055 356.418L340.185 358.225ZM352.735 357.416L342.228 351.35L349.426 347.194L351.23 348.235L346.237 351.118L348.696 352.537L353.361 349.844L355.179 350.894L350.514 353.587L353.137 355.101L358.13 352.219L359.933 353.26L352.735 357.416ZM366.409 349.711C365.276 350.365 364.084 350.795 362.832 351.002C361.58 351.208 360.333 351.206 359.091 350.993C357.849 350.77 356.676 350.339 355.574 349.703C354.471 349.066 353.73 348.392 353.353 347.681C352.985 346.964 352.98 346.244 353.338 345.521C353.696 344.798 354.441 344.11 355.574 343.456C356.269 343.055 357.044 342.734 357.898 342.493C358.753 342.252 359.573 342.123 360.358 342.105L361.475 343.577C360.681 343.634 359.975 343.749 359.359 343.921C358.743 344.081 358.187 344.305 357.69 344.592C356.696 345.166 356.234 345.771 356.304 346.407C356.363 347.038 356.935 347.666 358.018 348.292C359.101 348.917 360.194 349.25 361.297 349.29C362.399 349.33 363.448 349.063 364.441 348.49C364.938 348.203 365.33 347.884 365.619 347.535C365.907 347.173 366.101 346.763 366.2 346.304L368.748 346.949C368.719 347.403 368.495 347.876 368.078 348.369C367.66 348.862 367.104 349.31 366.409 349.711ZM370.71 347.039L360.203 340.973L362.513 339.639L373.02 345.705L370.71 347.039ZM373.302 345.543L367.623 336.689L369.486 335.614L384.822 338.892L382.497 340.234L378.324 339.27L379.889 339.107L373.674 342.695L373.957 341.791L375.642 344.192L373.302 345.543ZM370.992 337.584L373.63 341.309L372.646 341.206L377.311 338.513L377.49 339.081L371.021 337.567L370.992 337.584ZM385.119 338.72L374.612 332.654L376.922 331.321L385.477 336.26L390.336 333.455L392.288 334.582L385.119 338.72ZM393.052 334.141L382.545 328.075L384.855 326.742L395.362 332.807L393.052 334.141ZM396.478 332.163L394.779 331.182L392.961 323.473L393.661 323.877L387.894 327.207L385.971 326.097L393.915 321.511L395.614 322.492L397.402 330.201L396.717 329.805L402.723 326.338L404.645 327.448L396.478 332.163ZM405.409 327.007L394.902 320.941L402.1 316.786L403.904 317.827L398.911 320.709L401.37 322.129L406.035 319.436L407.853 320.485L403.188 323.178L405.811 324.693L410.804 321.81L412.607 322.851L405.409 327.007ZM413.822 322.15L403.314 316.085L407.428 313.71C408.62 313.022 409.842 312.557 411.094 312.316C412.346 312.064 413.583 312.038 414.805 312.239C416.027 312.428 417.195 312.844 418.308 313.486C419.42 314.129 420.146 314.806 420.484 315.517C420.831 316.222 420.792 316.939 420.364 317.668C419.937 318.385 419.127 319.087 417.935 319.776L413.822 322.15ZM414.239 319.724L415.908 318.76C417.031 318.112 417.592 317.467 417.592 316.825C417.592 316.182 417.026 315.534 415.893 314.88C414.761 314.226 413.638 313.905 412.525 313.916C411.412 313.916 410.299 314.238 409.187 314.88L407.517 315.844L414.239 319.724ZM428.289 313.798L417.782 307.733L422.596 304.953C423.719 304.305 424.827 303.947 425.919 303.878C427.022 303.803 427.996 304.01 428.841 304.497C429.467 304.859 429.819 305.269 429.899 305.728C429.978 306.187 429.78 306.64 429.303 307.087L429.064 306.95C429.63 306.714 430.197 306.565 430.763 306.502C431.33 306.439 431.881 306.459 432.417 306.562C432.964 306.66 433.471 306.843 433.938 307.113C434.554 307.469 434.936 307.862 435.085 308.292C435.244 308.716 435.17 309.155 434.862 309.608C434.554 310.05 434.022 310.489 433.267 310.925L428.289 313.798ZM428.781 311.535L431.24 310.116C431.479 309.978 431.672 309.843 431.821 309.711C431.97 309.58 432.075 309.456 432.134 309.341C432.204 309.221 432.229 309.103 432.209 308.989C432.179 308.868 432.109 308.754 432 308.645C431.901 308.53 431.762 308.421 431.583 308.318C431.394 308.209 431.205 308.128 431.017 308.077C430.828 308.014 430.634 307.976 430.435 307.965C430.237 307.953 430.033 307.968 429.824 308.008C429.616 308.037 429.402 308.097 429.183 308.189C428.955 308.275 428.721 308.386 428.483 308.524L426.024 309.944L428.781 311.535ZM424.31 308.954L426.516 307.681C427.092 307.348 427.41 307.039 427.469 306.752C427.529 306.465 427.34 306.195 426.903 305.943C426.476 305.696 426.014 305.59 425.517 305.625C425.02 305.659 424.484 305.843 423.907 306.175L421.702 307.449L424.31 308.954ZM438.041 308.169L427.534 302.103L429.844 300.769L438.399 305.708L443.257 302.903L445.21 304.03L438.041 308.169ZM450.429 301.207C449.654 301.654 448.814 301.99 447.91 302.213C447.016 302.431 446.101 302.534 445.168 302.523C444.234 302.511 443.31 302.385 442.395 302.144C441.491 301.898 440.632 301.539 439.817 301.069C438.992 300.593 438.371 300.097 437.954 299.58C437.537 299.053 437.323 298.522 437.313 297.989C437.293 297.449 437.472 296.922 437.85 296.406C438.237 295.884 438.819 295.399 439.594 294.951C440.378 294.498 441.218 294.163 442.112 293.945C443.006 293.727 443.916 293.621 444.84 293.626C445.764 293.632 446.683 293.756 447.597 293.996C448.511 294.237 449.375 294.593 450.19 295.063C451.015 295.539 451.636 296.041 452.053 296.569C452.47 297.097 452.689 297.63 452.709 298.169C452.729 298.709 452.55 299.236 452.172 299.752C451.795 300.269 451.213 300.753 450.429 301.207ZM448.461 300.071C449.057 299.727 449.425 299.36 449.564 298.97C449.693 298.574 449.609 298.164 449.311 297.739C449.013 297.303 448.506 296.879 447.791 296.466C447.065 296.047 446.335 295.752 445.6 295.58C444.864 295.407 444.154 295.364 443.468 295.451C442.783 295.537 442.147 295.749 441.561 296.087C440.985 296.42 440.622 296.784 440.473 297.18C440.324 297.576 440.398 297.986 440.696 298.41C440.994 298.835 441.506 299.256 442.231 299.675C442.947 300.088 443.677 300.383 444.422 300.561C445.158 300.733 445.873 300.779 446.568 300.699C447.254 300.613 447.885 300.404 448.461 300.071ZM461.903 294.582C460.77 295.236 459.578 295.666 458.326 295.873C457.074 296.079 455.827 296.077 454.585 295.864C453.343 295.641 452.171 295.21 451.068 294.574C449.965 293.937 449.225 293.263 448.847 292.552C448.48 291.835 448.475 291.115 448.832 290.392C449.19 289.67 449.935 288.981 451.068 288.327C451.763 287.926 452.538 287.605 453.393 287.364C454.247 287.123 455.067 286.994 455.852 286.977L456.97 288.448C456.175 288.505 455.469 288.62 454.853 288.792C454.237 288.953 453.681 289.176 453.184 289.463C452.191 290.037 451.729 290.642 451.798 291.278C451.858 291.909 452.429 292.538 453.512 293.163C454.595 293.788 455.688 294.121 456.791 294.161C457.894 294.201 458.942 293.934 459.936 293.361C460.432 293.074 460.825 292.755 461.113 292.406C461.401 292.044 461.595 291.634 461.694 291.175L464.243 291.821C464.213 292.274 463.989 292.747 463.572 293.24C463.155 293.733 462.598 294.181 461.903 294.582ZM466.204 291.91L455.697 285.844L458.007 284.51L462.583 287.152L462.613 287.135L462.404 281.972L465.176 280.372L465.325 286.653L464.341 286.068L475.892 286.317L473.09 287.935L463.745 287.789L463.715 287.806L468.514 290.576L466.204 291.91ZM480.679 283.743C479.546 284.397 478.354 284.827 477.102 285.034C475.85 285.24 474.603 285.237 473.361 285.025C472.119 284.801 470.946 284.371 469.844 283.735C468.741 283.098 468 282.424 467.623 281.713C467.255 280.996 467.25 280.276 467.608 279.553C467.966 278.83 468.711 278.142 469.844 277.488C470.539 277.087 471.314 276.765 472.169 276.525C473.023 276.284 473.843 276.155 474.628 276.137L475.745 277.609C474.951 277.666 474.245 277.781 473.629 277.953C473.013 278.113 472.457 278.337 471.96 278.624C470.966 279.197 470.504 279.803 470.574 280.439C470.633 281.07 471.205 281.698 472.288 282.324C473.371 282.949 474.464 283.281 475.567 283.322C476.669 283.362 477.718 283.095 478.711 282.521C479.208 282.235 479.601 281.916 479.889 281.566C480.177 281.205 480.371 280.795 480.47 280.336L483.018 280.981C482.989 281.434 482.765 281.908 482.348 282.401C481.93 282.894 481.374 283.342 480.679 283.743ZM484.98 281.071L474.473 275.005L476.783 273.671L481.001 276.106L485.889 273.284L481.671 270.849L483.981 269.516L494.489 275.581L492.179 276.915L487.812 274.394L482.923 277.216L487.29 279.737L484.98 281.071ZM494.791 275.407L489.112 266.553L490.975 265.478L506.311 268.756L503.986 270.098L499.813 269.135L501.378 268.971L495.163 272.559L495.447 271.656L497.131 274.056L494.791 275.407ZM492.481 267.448L495.119 271.174L494.135 271.071L498.8 268.378L498.979 268.945L492.51 267.431L492.481 267.448ZM506.608 268.585L496.101 262.519L498.411 261.185L508.918 267.251L506.608 268.585ZM510.407 266.392L499.9 260.326L501.614 259.336L514.461 260.231L514.059 260.463L506.86 256.308L509.006 255.069L519.513 261.135L517.814 262.115L504.953 261.212L505.34 260.988L512.553 265.153L510.407 266.392ZM524.555 258.224L514.048 252.158L515.761 251.169L528.608 252.064L528.206 252.296L521.008 248.14L523.154 246.901L533.661 252.967L531.962 253.948L519.1 253.045L519.487 252.821L526.701 256.985L524.555 258.224ZM535.165 252.099L524.658 246.033L531.856 241.877L533.66 242.918L528.667 245.801L531.126 247.22L535.791 244.527L537.609 245.577L532.944 248.27L535.567 249.784L540.56 246.902L542.364 247.943L535.165 252.099ZM546.082 245.797L537.482 240.832L534.01 242.837L532.102 241.736L541.357 236.393L543.265 237.494L539.792 239.499L548.392 244.463L546.082 245.797ZM555.567 240.321L541.319 236.415L543.689 235.047L554.524 238.153L553.883 238.523L548.652 232.182L550.321 231.218L561.186 234.307L560.634 234.625L555.299 228.344L557.534 227.054L564.271 235.296L562.393 236.38L552.288 233.593L552.646 233.386L557.445 239.237L555.567 240.321ZM573.475 230.172C572.7 230.619 571.86 230.955 570.956 231.179C570.062 231.397 569.148 231.5 568.214 231.488C567.28 231.477 566.356 231.351 565.442 231.11C564.537 230.863 563.678 230.505 562.863 230.034C562.039 229.558 561.418 229.062 561 228.546C560.583 228.018 560.369 227.488 560.359 226.954C560.339 226.415 560.518 225.887 560.896 225.371C561.283 224.849 561.865 224.364 562.64 223.917C563.425 223.464 564.264 223.128 565.158 222.91C566.053 222.692 566.962 222.586 567.886 222.592C568.81 222.598 569.729 222.721 570.643 222.962C571.557 223.203 572.421 223.558 573.236 224.029C574.061 224.505 574.682 225.007 575.099 225.535C575.516 226.062 575.735 226.596 575.755 227.135C575.775 227.674 575.596 228.202 575.218 228.718C574.841 229.234 574.26 229.719 573.475 230.172ZM571.507 229.036C572.103 228.692 572.471 228.325 572.61 227.935C572.739 227.539 572.655 227.129 572.357 226.705C572.059 226.269 571.552 225.844 570.837 225.431C570.111 225.013 569.381 224.717 568.646 224.545C567.911 224.373 567.2 224.33 566.515 224.416C565.829 224.502 565.193 224.714 564.607 225.053C564.031 225.385 563.668 225.75 563.519 226.145C563.37 226.541 563.444 226.951 563.742 227.376C564.041 227.8 564.552 228.222 565.278 228.641C565.993 229.054 566.723 229.349 567.468 229.527C568.204 229.699 568.919 229.745 569.615 229.664C570.3 229.578 570.931 229.369 571.507 229.036ZM579.688 226.396L569.181 220.33L573.98 217.56C575.152 216.883 576.34 216.524 577.542 216.484C578.744 216.444 579.852 216.716 580.865 217.301C581.521 217.68 581.943 218.09 582.132 218.532C582.321 218.973 582.271 219.427 581.983 219.891C581.705 220.35 581.173 220.806 580.388 221.259L580.254 221.044L580.865 220.691C581.283 220.45 581.75 220.301 582.266 220.244C582.783 220.175 583.364 220.195 584.01 220.304L588.824 221.122L586.275 222.593L581.104 221.707C580.826 221.661 580.572 221.646 580.344 221.664C580.105 221.675 579.882 221.718 579.673 221.793C579.464 221.856 579.261 221.945 579.062 222.059L577.929 222.713L581.998 225.062L579.688 226.396ZM576.26 221.75L578.332 220.554C578.948 220.198 579.286 219.86 579.345 219.538C579.415 219.211 579.201 218.905 578.704 218.618C578.217 218.337 577.691 218.216 577.125 218.256C576.568 218.291 575.982 218.486 575.366 218.842L573.294 220.037L576.26 221.75ZM589.454 220.758L578.947 214.692L581.257 213.358L585.833 216L585.862 215.983L585.654 210.82L588.426 209.22L588.575 215.501L587.591 214.916L599.142 215.165L596.34 216.783L586.995 216.636L586.965 216.654L591.764 219.424L589.454 220.758Z" fill="white"/>
</g>
</g>
<g filter="url(#filter14_d_2142_323)">
<g filter="url(#filter15_d_2142_323)">
<path d="M567.295 426.685L550.249 436.526C549.898 436.729 549.722 436.831 549.516 436.89C549.334 436.942 549.138 436.971 548.936 436.973C548.709 436.976 548.47 436.931 547.993 436.841C496.727 427.242 475.329 429.164 455.783 447.658C454.944 448.452 454.524 448.849 454.008 448.938C453.585 449.012 453.061 448.945 452.722 448.775C452.308 448.568 452.199 448.147 451.981 447.303C445.967 424.064 515.156 400.576 567.121 424.621C567.826 424.948 568.178 425.111 568.324 425.322C568.451 425.503 568.469 425.716 568.375 425.906C568.266 426.125 567.943 426.312 567.295 426.685Z" fill="white"/>
</g>
<g filter="url(#filter16_d_2142_323)">
<path d="M490.893 415.607C526.256 408.172 553.132 416.533 569.933 424.173C570.489 424.426 571.259 424.397 571.764 424.106L601.219 407.102C601.958 406.675 601.74 405.928 600.804 405.685L534.651 388.515C534.131 388.38 533.529 388.446 533.118 388.683L489.234 414.017C488.082 414.682 489.393 415.923 490.893 415.607Z" fill="white"/>
</g>
</g>
<g filter="url(#filter17_d_2142_323)">
<path d="M661.933 372.051L603.497 369.047L603.496 335.328L616.329 327.919L615.844 364.838L610.64 361.501L675.028 364.491L661.933 372.051ZM625.006 393.368L567.18 356.293L577.219 350.497L635.046 387.573L625.006 393.368ZM692.18 355.595C688.398 357.779 684.055 359.179 679.153 359.794C674.31 360.376 669.444 360.199 664.555 359.263C659.67 358.259 655.3 356.52 651.445 354.049C647.535 351.542 644.911 348.795 643.573 345.81C642.238 342.756 642.175 339.773 643.384 336.86C644.596 333.879 647.093 331.297 650.876 329.113C654.077 327.265 657.56 326.059 661.326 325.495C665.096 324.863 668.837 324.85 672.55 325.458C676.263 326.066 679.551 327.288 682.415 329.124L693.815 336.433C696.678 338.269 698.512 340.331 699.315 342.619C700.176 344.873 700.016 347.146 698.836 349.438C697.6 351.695 695.381 353.747 692.18 355.595ZM685.16 349.18C688.711 347.13 690.433 344.76 690.329 342.069C690.282 339.345 688.497 336.853 684.972 334.593C682.604 333.075 680.016 332.018 677.21 331.424C674.403 330.83 671.602 330.736 668.806 331.142C666.014 331.479 663.425 332.336 661.039 333.714C658.711 335.058 657.168 336.586 656.41 338.298C655.656 339.942 655.663 341.649 656.433 343.419C657.261 345.155 658.859 346.782 661.227 348.301C663.595 349.819 666.183 350.875 668.989 351.469C671.854 352.03 674.683 352.142 677.475 351.805C680.271 351.399 682.833 350.524 685.16 349.18ZM704.187 347.657L693.531 340.825L685.524 333.67L674.283 328.484L664.535 322.234L674.138 316.69L713.79 342.114L704.187 347.657ZM720.082 338.481L680.43 313.058L690.032 307.514L729.685 332.938L720.082 338.481ZM707.628 318.796L702.741 319.705C697.73 316.491 694.846 313.224 694.09 309.903C693.337 306.513 695.346 303.44 700.118 300.685C702.214 299.476 704.463 298.613 706.867 298.098C709.27 297.583 711.998 297.417 715.05 297.601L714.878 305.149C713.35 305.091 711.956 305.225 710.694 305.551C709.433 305.877 708.191 306.392 706.969 307.098C704.291 308.643 702.878 310.432 702.73 312.464C702.581 314.496 704.214 316.607 707.628 318.796ZM768.361 311.616C764.578 313.8 760.236 315.2 755.334 315.815C750.49 316.397 745.624 316.22 740.736 315.284C735.851 314.28 731.481 312.541 727.626 310.07C723.715 307.563 721.091 304.816 719.753 301.831C718.418 298.777 718.355 295.794 719.564 292.881C720.776 289.9 723.274 287.318 727.056 285.134C730.257 283.286 733.741 282.08 737.507 281.516C741.276 280.884 745.017 280.871 748.73 281.479C752.443 282.087 755.731 283.309 758.595 285.145L769.995 292.454C772.859 294.29 774.692 296.352 775.495 298.64C776.357 300.894 776.197 303.167 775.016 305.459C773.78 307.716 771.562 309.768 768.361 311.616ZM761.341 305.201C764.891 303.151 766.614 300.781 766.509 298.09C766.463 295.366 764.677 292.874 761.152 290.614C758.784 289.096 756.197 288.039 753.39 287.445C750.583 286.851 747.782 286.757 744.987 287.163C742.195 287.5 739.605 288.357 737.219 289.735C734.891 291.079 733.348 292.607 732.591 294.319C731.836 295.963 731.844 297.67 732.613 299.44C733.441 301.176 735.04 302.803 737.408 304.322C739.776 305.84 742.363 306.896 745.17 307.49C748.035 308.051 750.864 308.163 753.656 307.826C756.451 307.42 759.013 306.545 761.341 305.201ZM780.367 303.678L769.711 296.846L761.704 289.691L750.463 284.505L740.715 278.255L750.318 272.711L789.97 298.135L780.367 303.678ZM822.888 279.131L784.928 276.385L783.149 253.758L794.584 247.156L796.14 272.831L791.372 269.242L835.11 272.076L822.888 279.131ZM796.262 294.502L736.784 256.367L746.387 250.824L805.865 288.959L796.262 294.502Z" fill="white"/>
</g>
<g filter="url(#filter18_d_2142_323)">
<path d="M559.762 511.418C557.014 513.004 554.162 514.051 551.206 514.558C548.273 515.051 545.374 515.044 542.511 514.538C539.647 514.031 536.956 513.051 534.439 511.598C531.853 510.105 530.121 508.518 529.243 506.838C528.388 505.145 528.412 503.438 529.312 501.718C530.236 499.985 532.049 498.339 534.751 496.779C535.906 496.112 537.13 495.539 538.423 495.059C539.693 494.566 540.975 494.172 542.268 493.879C543.585 493.572 544.843 493.392 546.044 493.339L548.504 496.759C546.656 496.919 545.016 497.225 543.585 497.679C542.13 498.119 540.756 498.712 539.462 499.459C536.991 500.885 535.813 502.352 535.929 503.858C536.067 505.352 537.441 506.851 540.051 508.358C542.661 509.865 545.259 510.645 547.846 510.698C550.455 510.738 552.996 510.045 555.467 508.618C556.298 508.138 557.072 507.598 557.788 506.998C558.504 506.398 559.139 505.765 559.693 505.098L560.871 506.938L554.22 503.098L548.954 506.138L545.074 503.898L554.774 498.299L566.76 505.218C566.367 505.898 565.813 506.605 565.097 507.338C564.404 508.058 563.596 508.765 562.672 509.458C561.772 510.165 560.802 510.818 559.762 511.418ZM573.002 503.335L548.58 489.236L553.949 486.136L573.833 497.615L585.127 491.095L589.665 493.715L573.002 503.335ZM603.216 486.332C601.414 487.372 599.463 488.152 597.361 488.672C595.283 489.179 593.158 489.419 590.987 489.392C588.816 489.365 586.669 489.072 584.544 488.512C582.442 487.939 580.445 487.105 578.551 486.012C576.634 484.906 575.191 483.752 574.221 482.552C573.251 481.326 572.754 480.093 572.731 478.853C572.685 477.599 573.101 476.373 573.978 475.173C574.879 473.96 576.23 472.833 578.031 471.793C579.856 470.74 581.807 469.96 583.886 469.453C585.964 468.947 588.077 468.7 590.225 468.713C592.373 468.727 594.509 469.013 596.634 469.573C598.759 470.133 600.768 470.96 602.662 472.053C604.578 473.16 606.022 474.326 606.992 475.553C607.962 476.779 608.47 478.019 608.516 479.273C608.562 480.526 608.147 481.752 607.269 482.952C606.391 484.152 605.04 485.279 603.216 486.332ZM598.643 483.692C600.029 482.892 600.883 482.039 601.207 481.132C601.507 480.213 601.311 479.259 600.618 478.273C599.925 477.259 598.747 476.273 597.084 475.313C595.398 474.34 593.701 473.653 591.992 473.253C590.283 472.853 588.632 472.753 587.038 472.953C585.445 473.153 583.967 473.646 582.604 474.433C581.264 475.206 580.422 476.053 580.075 476.973C579.729 477.893 579.902 478.846 580.595 479.833C581.288 480.819 582.477 481.799 584.163 482.772C585.826 483.732 587.523 484.419 589.255 484.832C590.964 485.232 592.627 485.339 594.244 485.152C595.837 484.952 597.304 484.466 598.643 483.692ZM619.078 476.735L594.656 462.636L605.845 456.176C608.455 454.67 611.03 453.836 613.57 453.676C616.134 453.503 618.397 453.983 620.36 455.116C621.815 455.956 622.635 456.909 622.82 457.976C623.004 459.043 622.542 460.096 621.434 461.136L620.88 460.816C622.196 460.269 623.512 459.923 624.829 459.776C626.145 459.629 627.427 459.676 628.674 459.916C629.944 460.143 631.122 460.569 632.207 461.196C633.639 462.022 634.528 462.936 634.875 463.936C635.244 464.922 635.071 465.942 634.355 466.995C633.639 468.022 632.404 469.042 630.649 470.055L619.078 476.735ZM620.221 471.475L625.937 468.175C626.492 467.855 626.942 467.542 627.288 467.235C627.635 466.929 627.877 466.642 628.016 466.375C628.177 466.095 628.235 465.822 628.189 465.556C628.12 465.276 627.958 465.009 627.704 464.756C627.473 464.489 627.15 464.236 626.734 463.996C626.295 463.742 625.856 463.556 625.418 463.436C624.979 463.289 624.529 463.202 624.067 463.176C623.605 463.149 623.131 463.182 622.646 463.276C622.161 463.342 621.665 463.482 621.157 463.696C620.626 463.896 620.083 464.156 619.529 464.476L613.813 467.775L620.221 471.475ZM609.829 465.476L614.956 462.516C616.295 461.742 617.034 461.022 617.173 460.356C617.312 459.689 616.873 459.063 615.857 458.476C614.863 457.903 613.79 457.656 612.635 457.736C611.48 457.816 610.233 458.243 608.894 459.016L603.767 461.976L609.829 465.476ZM640.258 464.508L627.059 443.929L631.389 441.429L667.036 449.049L661.632 452.169L651.932 449.929L655.569 449.549L641.124 457.888L641.782 455.788L645.696 461.368L640.258 464.508ZM634.888 446.009L641.02 454.669L638.733 454.429L649.576 448.169L649.992 449.489L634.957 445.969L634.888 446.009ZM669.146 447.83L644.724 433.731L650.093 430.632L669.978 442.111L681.271 435.591L685.809 438.211L669.146 447.83ZM698.646 430.8L674.224 416.701L685.413 410.242C688.023 408.735 690.598 407.902 693.138 407.742C695.702 407.568 697.965 408.048 699.928 409.182C701.383 410.022 702.203 410.975 702.387 412.042C702.572 413.108 702.11 414.161 701.002 415.201L700.447 414.881C701.764 414.335 703.08 413.988 704.397 413.841C705.713 413.695 706.995 413.741 708.242 413.981C709.512 414.208 710.69 414.635 711.775 415.261C713.207 416.088 714.096 417.001 714.443 418.001C714.812 418.988 714.639 420.008 713.923 421.061C713.207 422.088 711.972 423.107 710.216 424.121L698.646 430.8ZM699.789 425.541L705.505 422.241C706.059 421.921 706.51 421.608 706.856 421.301C707.203 420.994 707.445 420.708 707.584 420.441C707.745 420.161 707.803 419.888 707.757 419.621C707.688 419.341 707.526 419.074 707.272 418.821C707.041 418.554 706.718 418.301 706.302 418.061C705.863 417.808 705.424 417.621 704.986 417.501C704.547 417.354 704.096 417.268 703.634 417.241C703.173 417.215 702.699 417.248 702.214 417.341C701.729 417.408 701.233 417.548 700.725 417.761C700.193 417.961 699.651 418.221 699.096 418.541L693.381 421.841L699.789 425.541ZM689.397 419.541L694.524 416.581C695.863 415.808 696.602 415.088 696.741 414.421C696.879 413.755 696.441 413.128 695.424 412.541C694.431 411.968 693.357 411.722 692.203 411.802C691.048 411.882 689.801 412.308 688.461 413.081L683.334 416.041L689.397 419.541ZM719.825 418.573L706.627 397.995L710.957 395.495L746.604 403.114L741.199 406.234L731.5 403.994L735.137 403.614L720.691 411.954L721.35 409.854L725.264 415.434L719.825 418.573ZM714.456 400.075L720.588 408.734L718.301 408.494L729.144 402.234L729.56 403.554L714.525 400.035L714.456 400.075ZM757.521 397.252C756.25 397.985 754.899 398.632 753.467 399.192C752.082 399.752 750.685 400.212 749.276 400.572C747.844 400.918 746.47 401.152 745.153 401.272L742.486 397.932C743.733 397.799 744.969 397.592 746.193 397.312C747.417 397.032 748.618 396.672 749.795 396.232C750.95 395.779 752.036 395.259 753.052 394.672C754.738 393.699 755.685 392.859 755.892 392.152C756.077 391.432 755.777 390.846 754.992 390.392C754.553 390.139 754.056 389.986 753.502 389.932C752.971 389.866 752.336 389.912 751.597 390.072C750.858 390.206 749.98 390.472 748.964 390.872L744.218 392.652C741.539 393.666 739.103 394.166 736.909 394.152C734.715 394.112 732.706 393.566 730.881 392.512C729.311 391.606 728.364 390.579 728.04 389.433C727.74 388.273 728.006 387.079 728.837 385.853C729.692 384.613 731.089 383.433 733.029 382.313C734.16 381.66 735.361 381.1 736.632 380.633C737.879 380.153 739.149 379.78 740.442 379.513C741.735 379.247 742.994 379.093 744.218 379.053L746.608 382.233C744.946 382.34 743.352 382.62 741.828 383.073C740.281 383.513 738.826 384.126 737.463 384.913C736.493 385.473 735.789 386.026 735.35 386.573C734.934 387.106 734.772 387.613 734.865 388.093C734.98 388.559 735.338 388.966 735.939 389.313C736.608 389.699 737.394 389.872 738.294 389.832C739.195 389.792 740.373 389.499 741.828 388.953L746.574 387.173C749.322 386.146 751.793 385.626 753.987 385.613C756.158 385.586 758.121 386.079 759.876 387.093C761.4 387.973 762.324 388.986 762.648 390.132C762.971 391.252 762.705 392.432 761.851 393.672C760.996 394.885 759.553 396.079 757.521 397.252ZM770.602 389.26L746.18 375.161L762.912 365.502L767.103 367.921L755.498 374.621L761.214 377.921L772.057 371.661L776.283 374.101L765.441 380.361L771.537 383.88L783.142 377.181L787.334 379.601L770.602 389.26ZM801.218 371.585L776.796 357.486L782.165 354.387L802.05 365.866L813.343 359.346L817.881 361.966L801.218 371.585ZM817.831 361.995L804.632 341.416L808.962 338.917L844.609 346.536L839.205 349.656L829.505 347.416L833.142 347.036L818.697 355.376L819.355 353.276L823.269 358.855L817.831 361.995ZM812.461 343.496L818.593 352.156L816.306 351.916L827.149 345.656L827.565 346.976L812.53 343.456L812.461 343.496ZM850.238 343.286L837.698 336.047L841.889 337.187L816.393 334.627L822.628 331.027L838.564 332.707L837.455 333.347L834.545 324.148L840.538 320.688L845.076 335.347L843.067 332.947L855.607 340.187L850.238 343.286ZM867.795 333.15L843.373 319.051L860.105 309.392L864.297 311.812L852.692 318.511L858.407 321.811L869.25 315.552L873.477 317.991L862.634 324.251L868.731 327.771L880.336 321.071L884.527 323.491L867.795 333.15ZM888.77 321.042L864.347 306.943L875.502 300.503C878.227 298.93 880.987 298.097 883.781 298.003C886.576 297.91 889.151 298.543 891.507 299.903C893.031 300.783 894.012 301.736 894.451 302.763C894.89 303.79 894.774 304.843 894.105 305.923C893.458 306.989 892.222 308.049 890.398 309.103L890.086 308.603L891.507 307.783C892.477 307.223 893.562 306.876 894.763 306.743C895.964 306.583 897.315 306.629 898.816 306.883L910.005 308.783L904.082 312.202L892.061 310.143C891.414 310.036 890.825 310.003 890.294 310.043C889.74 310.069 889.22 310.169 888.735 310.343C888.25 310.489 887.777 310.696 887.315 310.962L884.682 312.482L894.139 317.942L888.77 321.042ZM880.802 310.243L885.617 307.463C887.049 306.636 887.835 305.849 887.973 305.103C888.135 304.343 887.638 303.63 886.483 302.963C885.352 302.31 884.128 302.03 882.811 302.123C881.518 302.203 880.156 302.656 878.724 303.483L873.909 306.263L880.802 310.243Z" fill="white"/>
</g>
<defs>
<filter id="filter0_d_2142_323" x="415.88" y="30.9125" width="203.448" height="166.168" filterUnits="userSpaceOnUse" color-interpolation-filters="sRGB">
<feFlood flood-opacity="0" result="BackgroundImageFix"/>
<feColorMatrix in="SourceAlpha" type="matrix" values="0 0 0 0 0 0 0 0 0 0 0 0 0 0 0 0 0 0 127 0" result="hardAlpha"/>
<feOffset dy="14.7505"/>
<feGaussianBlur stdDeviation="2.45842"/>
<feComposite in2="hardAlpha" operator="out"/>
<feColorMatrix type="matrix" values="0 0 0 0 0 0 0 0 0 0 0 0 0 0 0 0 0 0 0.1 0"/>
<feBlend mode="normal" in2="BackgroundImageFix" result="effect1_dropShadow_2142_323"/>
<feBlend mode="normal" in="SourceGraphic" in2="effect1_dropShadow_2142_323" result="shape"/>
</filter>
<filter id="filter1_d_2142_323" x="453.645" y="80.3339" width="76.8513" height="48.523" filterUnits="userSpaceOnUse" color-interpolation-filters="sRGB">
<feFlood flood-opacity="0" result="BackgroundImageFix"/>
<feColorMatrix in="SourceAlpha" type="matrix" values="0 0 0 0 0 0 0 0 0 0 0 0 0 0 0 0 0 0 127 0" result="hardAlpha"/>
<feOffset dy="4.91685"/>
<feGaussianBlur stdDeviation="2.45842"/>
<feComposite in2="hardAlpha" operator="out"/>
<feColorMatrix type="matrix" values="0 0 0 0 0 0 0 0 0 0 0 0 0 0 0 0 0 0 0.25 0"/>
<feBlend mode="normal" in2="BackgroundImageFix" result="effect1_dropShadow_2142_323"/>
<feBlend mode="normal" in="SourceGraphic" in2="effect1_dropShadow_2142_323" result="shape"/>
</filter>
<filter id="filter2_d_2142_323" x="487.175" y="73.9349" width="203.447" height="166.168" filterUnits="userSpaceOnUse" color-interpolation-filters="sRGB">
<feFlood flood-opacity="0" result="BackgroundImageFix"/>
<feColorMatrix in="SourceAlpha" type="matrix" values="0 0 0 0 0 0 0 0 0 0 0 0 0 0 0 0 0 0 127 0" result="hardAlpha"/>
<feOffset dy="14.7505"/>
<feGaussianBlur stdDeviation="2.45842"/>
<feComposite in2="hardAlpha" operator="out"/>
<feColorMatrix type="matrix" values="0 0 0 0 0 0 0 0 0 0 0 0 0 0 0 0 0 0 0.1 0"/>
<feBlend mode="normal" in2="BackgroundImageFix" result="effect1_dropShadow_2142_323"/>
<feBlend mode="normal" in="SourceGraphic" in2="effect1_dropShadow_2142_323" result="shape"/>
</filter>
<filter id="filter3_d_2142_323" x="515.693" y="89.15" width="144.936" height="87.8283" filterUnits="userSpaceOnUse" color-interpolation-filters="sRGB">
<feFlood flood-opacity="0" result="BackgroundImageFix"/>
<feColorMatrix in="SourceAlpha" type="matrix" values="0 0 0 0 0 0 0 0 0 0 0 0 0 0 0 0 0 0 127 0" result="hardAlpha"/>
<feOffset dy="4.91685"/>
<feGaussianBlur stdDeviation="2.45842"/>
<feComposite in2="hardAlpha" operator="out"/>
<feColorMatrix type="matrix" values="0 0 0 0 0 0 0 0 0 0 0 0 0 0 0 0 0 0 0.25 0"/>
<feBlend mode="normal" in2="BackgroundImageFix" result="effect1_dropShadow_2142_323"/>
<feBlend mode="normal" in="SourceGraphic" in2="effect1_dropShadow_2142_323" result="shape"/>
</filter>
<filter id="filter4_d_2142_323" x="276.334" y="112.567" width="203.448" height="166.168" filterUnits="userSpaceOnUse" color-interpolation-filters="sRGB">
<feFlood flood-opacity="0" result="BackgroundImageFix"/>
<feColorMatrix in="SourceAlpha" type="matrix" values="0 0 0 0 0 0 0 0 0 0 0 0 0 0 0 0 0 0 127 0" result="hardAlpha"/>
<feOffset dy="14.7505"/>
<feGaussianBlur stdDeviation="2.45842"/>
<feComposite in2="hardAlpha" operator="out"/>
<feColorMatrix type="matrix" values="0 0 0 0 0 0 0 0 0 0 0 0 0 0 0 0 0 0 0.1 0"/>
<feBlend mode="normal" in2="BackgroundImageFix" result="effect1_dropShadow_2142_323"/>
<feBlend mode="normal" in="SourceGraphic" in2="effect1_dropShadow_2142_323" result="shape"/>
</filter>
<filter id="filter5_d_2142_323" x="314.411" y="164.282" width="72.5647" height="46.0485" filterUnits="userSpaceOnUse" color-interpolation-filters="sRGB">
<feFlood flood-opacity="0" result="BackgroundImageFix"/>
<feColorMatrix in="SourceAlpha" type="matrix" values="0 0 0 0 0 0 0 0 0 0 0 0 0 0 0 0 0 0 127 0" result="hardAlpha"/>
<feOffset dy="4.91685"/>
<feGaussianBlur stdDeviation="2.45842"/>
<feComposite in2="hardAlpha" operator="out"/>
<feColorMatrix type="matrix" values="0 0 0 0 0 0 0 0 0 0 0 0 0 0 0 0 0 0 0.25 0"/>
<feBlend mode="normal" in2="BackgroundImageFix" result="effect1_dropShadow_2142_323"/>
<feBlend mode="normal" in="SourceGraphic" in2="effect1_dropShadow_2142_323" result="shape"/>
</filter>
<filter id="filter6_d_2142_323" x="347.63" y="155.59" width="203.448" height="166.168" filterUnits="userSpaceOnUse" color-interpolation-filters="sRGB">
<feFlood flood-opacity="0" result="BackgroundImageFix"/>
<feColorMatrix in="SourceAlpha" type="matrix" values="0 0 0 0 0 0 0 0 0 0 0 0 0 0 0 0 0 0 127 0" result="hardAlpha"/>
<feOffset dy="14.7505"/>
<feGaussianBlur stdDeviation="2.45842"/>
<feComposite in2="hardAlpha" operator="out"/>
<feColorMatrix type="matrix" values="0 0 0 0 0 0 0 0 0 0 0 0 0 0 0 0 0 0 0.1 0"/>
<feBlend mode="normal" in2="BackgroundImageFix" result="effect1_dropShadow_2142_323"/>
<feBlend mode="normal" in="SourceGraphic" in2="effect1_dropShadow_2142_323" result="shape"/>
</filter>
<filter id="filter7_d_2142_323" x="376.981" y="199.121" width="95.052" height="59.0302" filterUnits="userSpaceOnUse" color-interpolation-filters="sRGB">
<feFlood flood-opacity="0" result="BackgroundImageFix"/>
<feColorMatrix in="SourceAlpha" type="matrix" values="0 0 0 0 0 0 0 0 0 0 0 0 0 0 0 0 0 0 127 0" result="hardAlpha"/>
<feOffset dy="4.91685"/>
<feGaussianBlur stdDeviation="2.45842"/>
<feComposite in2="hardAlpha" operator="out"/>
<feColorMatrix type="matrix" values="0 0 0 0 0 0 0 0 0 0 0 0 0 0 0 0 0 0 0.25 0"/>
<feBlend mode="normal" in2="BackgroundImageFix" result="effect1_dropShadow_2142_323"/>
<feBlend mode="normal" in="SourceGraphic" in2="effect1_dropShadow_2142_323" result="shape"/>
</filter>
<filter id="filter8_d_2142_323" x="136.657" y="192.994" width="203.449" height="166.168" filterUnits="userSpaceOnUse" color-interpolation-filters="sRGB">
<feFlood flood-opacity="0" result="BackgroundImageFix"/>
<feColorMatrix in="SourceAlpha" type="matrix" values="0 0 0 0 0 0 0 0 0 0 0 0 0 0 0 0 0 0 127 0" result="hardAlpha"/>
<feOffset dy="14.7505"/>
<feGaussianBlur stdDeviation="2.45842"/>
<feComposite in2="hardAlpha" operator="out"/>
<feColorMatrix type="matrix" values="0 0 0 0 0 0 0 0 0 0 0 0 0 0 0 0 0 0 0.1 0"/>
<feBlend mode="normal" in2="BackgroundImageFix" result="effect1_dropShadow_2142_323"/>
<feBlend mode="normal" in="SourceGraphic" in2="effect1_dropShadow_2142_323" result="shape"/>
</filter>
<filter id="filter9_d_2142_323" x="174.735" y="230.231" width="97.6428" height="60.5258" filterUnits="userSpaceOnUse" color-interpolation-filters="sRGB">
<feFlood flood-opacity="0" result="BackgroundImageFix"/>
<feColorMatrix in="SourceAlpha" type="matrix" values="0 0 0 0 0 0 0 0 0 0 0 0 0 0 0 0 0 0 127 0" result="hardAlpha"/>
<feOffset dy="4.91685"/>
<feGaussianBlur stdDeviation="2.45842"/>
<feComposite in2="hardAlpha" operator="out"/>
<feColorMatrix type="matrix" values="0 0 0 0 0 0 0 0 0 0 0 0 0 0 0 0 0 0 0.25 0"/>
<feBlend mode="normal" in2="BackgroundImageFix" result="effect1_dropShadow_2142_323"/>
<feBlend mode="normal" in="SourceGraphic" in2="effect1_dropShadow_2142_323" result="shape"/>
</filter>
<filter id="filter10_d_2142_323" x="207.951" y="236.017" width="203.449" height="166.167" filterUnits="userSpaceOnUse" color-interpolation-filters="sRGB">
<feFlood flood-opacity="0" result="BackgroundImageFix"/>
<feColorMatrix in="SourceAlpha" type="matrix" values="0 0 0 0 0 0 0 0 0 0 0 0 0 0 0 0 0 0 127 0" result="hardAlpha"/>
<feOffset dy="14.7505"/>
<feGaussianBlur stdDeviation="2.45842"/>
<feComposite in2="hardAlpha" operator="out"/>
<feColorMatrix type="matrix" values="0 0 0 0 0 0 0 0 0 0 0 0 0 0 0 0 0 0 0.1 0"/>
<feBlend mode="normal" in2="BackgroundImageFix" result="effect1_dropShadow_2142_323"/>
<feBlend mode="normal" in="SourceGraphic" in2="effect1_dropShadow_2142_323" result="shape"/>
</filter>
<filter id="filter11_d_2142_323" x="236.966" y="272.98" width="106.315" height="65.5323" filterUnits="userSpaceOnUse" color-interpolation-filters="sRGB">
<feFlood flood-opacity="0" result="BackgroundImageFix"/>
<feColorMatrix in="SourceAlpha" type="matrix" values="0 0 0 0 0 0 0 0 0 0 0 0 0 0 0 0 0 0 127 0" result="hardAlpha"/>
<feOffset dy="4.91685"/>
<feGaussianBlur stdDeviation="2.45842"/>
<feComposite in2="hardAlpha" operator="out"/>
<feColorMatrix type="matrix" values="0 0 0 0 0 0 0 0 0 0 0 0 0 0 0 0 0 0 0.25 0"/>
<feBlend mode="normal" in2="BackgroundImageFix" result="effect1_dropShadow_2142_323"/>
<feBlend mode="normal" in="SourceGraphic" in2="effect1_dropShadow_2142_323" result="shape"/>
</filter>
<filter id="filter12_d_2142_323" x="280.848" y="118.851" width="482.716" height="327.417" filterUnits="userSpaceOnUse" color-interpolation-filters="sRGB">
<feFlood flood-opacity="0" result="BackgroundImageFix"/>
<feColorMatrix in="SourceAlpha" type="matrix" values="0 0 0 0 0 0 0 0 0 0 0 0 0 0 0 0 0 0 127 0" result="hardAlpha"/>
<feOffset dy="14.7505"/>
<feGaussianBlur stdDeviation="2.45842"/>
<feComposite in2="hardAlpha" operator="out"/>
<feColorMatrix type="matrix" values="0 0 0 0 0 0 0 0 0 0 0 0 0 0 0 0 0 0 0.1 0"/>
<feBlend mode="normal" in2="BackgroundImageFix" result="effect1_dropShadow_2142_323"/>
<feBlend mode="normal" in="SourceGraphic" in2="effect1_dropShadow_2142_323" result="shape"/>
</filter>
<filter id="filter13_d_2142_323" x="318.522" y="209.005" width="285.7" height="169.092" filterUnits="userSpaceOnUse" color-interpolation-filters="sRGB">
<feFlood flood-opacity="0" result="BackgroundImageFix"/>
<feColorMatrix in="SourceAlpha" type="matrix" values="0 0 0 0 0 0 0 0 0 0 0 0 0 0 0 0 0 0 127 0" result="hardAlpha"/>
<feOffset dy="4.91685"/>
<feGaussianBlur stdDeviation="2.45842"/>
<feComposite in2="hardAlpha" operator="out"/>
<feColorMatrix type="matrix" values="0 0 0 0 0 0 0 0 0 0 0 0 0 0 0 0 0 0 0.25 0"/>
<feBlend mode="normal" in2="BackgroundImageFix" result="effect1_dropShadow_2142_323"/>
<feBlend mode="normal" in="SourceGraphic" in2="effect1_dropShadow_2142_323" result="shape"/>
</filter>
<filter id="filter14_d_2142_323" x="446.697" y="388.446" width="159.882" height="80.1893" filterUnits="userSpaceOnUse" color-interpolation-filters="sRGB">
<feFlood flood-opacity="0" result="BackgroundImageFix"/>
<feColorMatrix in="SourceAlpha" type="matrix" values="0 0 0 0 0 0 0 0 0 0 0 0 0 0 0 0 0 0 127 0" result="hardAlpha"/>
<feOffset dy="14.7505"/>
<feGaussianBlur stdDeviation="2.45842"/>
<feComposite in2="hardAlpha" operator="out"/>
<feColorMatrix type="matrix" values="0 0 0 0 0 0 0 0 0 0 0 0 0 0 0 0 0 0 0.05 0"/>
<feBlend mode="normal" in2="BackgroundImageFix" result="effect1_dropShadow_2142_323"/>
<feBlend mode="normal" in="SourceGraphic" in2="effect1_dropShadow_2142_323" result="shape"/>
</filter>
<filter id="filter15_d_2142_323" x="446.862" y="414.524" width="126.324" height="43.9482" filterUnits="userSpaceOnUse" color-interpolation-filters="sRGB">
<feFlood flood-opacity="0" result="BackgroundImageFix"/>
<feColorMatrix in="SourceAlpha" type="matrix" values="0 0 0 0 0 0 0 0 0 0 0 0 0 0 0 0 0 0 127 0" result="hardAlpha"/>
<feOffset dy="4.752"/>
<feGaussianBlur stdDeviation="2.376"/>
<feComposite in2="hardAlpha" operator="out"/>
<feColorMatrix type="matrix" values="0 0 0 0 0 0 0 0 0 0 0 0 0 0 0 0 0 0 0.05 0"/>
<feBlend mode="normal" in2="BackgroundImageFix" result="effect1_dropShadow_2142_323"/>
<feBlend mode="normal" in="SourceGraphic" in2="effect1_dropShadow_2142_323" result="shape"/>
</filter>
<filter id="filter16_d_2142_323" x="484.043" y="388.446" width="122.371" height="45.4033" filterUnits="userSpaceOnUse" color-interpolation-filters="sRGB">
<feFlood flood-opacity="0" result="BackgroundImageFix"/>
<feColorMatrix in="SourceAlpha" type="matrix" values="0 0 0 0 0 0 0 0 0 0 0 0 0 0 0 0 0 0 127 0" result="hardAlpha"/>
<feOffset dy="4.752"/>
<feGaussianBlur stdDeviation="2.376"/>
<feComposite in2="hardAlpha" operator="out"/>
<feColorMatrix type="matrix" values="0 0 0 0 0 0 0 0 0 0 0 0 0 0 0 0 0 0 0.05 0"/>
<feBlend mode="normal" in2="BackgroundImageFix" result="effect1_dropShadow_2142_323"/>
<feBlend mode="normal" in="SourceGraphic" in2="effect1_dropShadow_2142_323" result="shape"/>
</filter>
<filter id="filter17_d_2142_323" x="562.263" y="247.156" width="277.764" height="165.879" filterUnits="userSpaceOnUse" color-interpolation-filters="sRGB">
<feFlood flood-opacity="0" result="BackgroundImageFix"/>
<feColorMatrix in="SourceAlpha" type="matrix" values="0 0 0 0 0 0 0 0 0 0 0 0 0 0 0 0 0 0 127 0" result="hardAlpha"/>
<feOffset dy="14.7505"/>
<feGaussianBlur stdDeviation="2.45842"/>
<feComposite in2="hardAlpha" operator="out"/>
<feColorMatrix type="matrix" values="0 0 0 0 0 0 0 0 0 0 0 0 0 0 0 0 0 0 0.05 0"/>
<feBlend mode="normal" in2="BackgroundImageFix" result="effect1_dropShadow_2142_323"/>
<feBlend mode="normal" in="SourceGraphic" in2="effect1_dropShadow_2142_323" result="shape"/>
</filter>
<filter id="filter18_d_2142_323" x="516.843" y="294.464" width="398.46" height="244.021" filterUnits="userSpaceOnUse" color-interpolation-filters="sRGB">
<feFlood flood-opacity="0" result="BackgroundImageFix"/>
<feColorMatrix in="SourceAlpha" type="matrix" values="0 0 0 0 0 0 0 0 0 0 0 0 0 0 0 0 0 0 127 0" result="hardAlpha"/>
<feOffset dy="14.7505"/>
<feGaussianBlur stdDeviation="2.45842"/>
<feComposite in2="hardAlpha" operator="out"/>
<feColorMatrix type="matrix" values="0 0 0 0 0 0 0 0 0 0 0 0 0 0 0 0 0 0 0.05 0"/>
<feBlend mode="normal" in2="BackgroundImageFix" result="effect1_dropShadow_2142_323"/>
<feBlend mode="normal" in="SourceGraphic" in2="effect1_dropShadow_2142_323" result="shape"/>
</filter>
<linearGradient id="paint0_linear_2142_323" x1="0" y1="328.906" x2="683.629" y2="328.906" gradientUnits="userSpaceOnUse">
<stop stop-color="#DF5E00"/>
<stop offset="1" stop-color="#FF9C54"/>
</linearGradient>
<linearGradient id="paint1_linear_2142_323" x1="0" y1="29.0078" x2="683.546" y2="29.0078" gradientUnits="userSpaceOnUse">
<stop stop-color="#FF9C54"/>
<stop offset="1" stop-color="#DF5E00"/>
</linearGradient>
<linearGradient id="paint2_linear_2142_323" x1="0" y1="28.9215" x2="657.661" y2="28.9215" gradientUnits="userSpaceOnUse">
<stop stop-color="#DF5E00"/>
<stop offset="1" stop-color="#FF9C54"/>
</linearGradient>
<linearGradient id="paint3_linear_2142_323" x1="0" y1="287.145" x2="596.829" y2="287.145" gradientUnits="userSpaceOnUse">
<stop stop-color="#DF5E00"/>
<stop offset="1" stop-color="#FF9C54"/>
</linearGradient>
<linearGradient id="paint4_linear_2142_323" x1="0" y1="25.3247" x2="596.757" y2="25.3247" gradientUnits="userSpaceOnUse">
<stop stop-color="#FF9C54"/>
<stop offset="1" stop-color="#DF5E00"/>
</linearGradient>
<linearGradient id="paint5_linear_2142_323" x1="0" y1="25.2494" x2="574.158" y2="25.2494" gradientUnits="userSpaceOnUse">
<stop stop-color="#DF5E00"/>
<stop offset="1" stop-color="#FF9C54"/>
</linearGradient>
<linearGradient id="paint6_linear_2142_323" x1="69.4685" y1="154.047" x2="-43.785" y2="108.284" gradientUnits="userSpaceOnUse">
<stop stop-color="#FFFAD5" stop-opacity="0.39"/>
<stop offset="1" stop-color="#FFB168"/>
</linearGradient>
<linearGradient id="paint7_linear_2142_323" x1="0" y1="0" x2="73.0527" y2="23.854" gradientUnits="userSpaceOnUse">
<stop stop-color="#713D00" stop-opacity="0.09"/>
<stop offset="1" stop-color="#FCCC93"/>
</linearGradient>
<linearGradient id="paint8_linear_2142_323" x1="-4.71931e-05" y1="-0.031811" x2="99.9483" y2="-58.1707" gradientUnits="userSpaceOnUse">
<stop stop-color="#FFA666"/>
<stop offset="1" stop-color="#FF9B3E"/>
</linearGradient>
<linearGradient id="paint9_linear_2142_323" x1="69.4685" y1="154.047" x2="-43.785" y2="108.284" gradientUnits="userSpaceOnUse">
<stop stop-color="#FFFAD5" stop-opacity="0.39"/>
<stop offset="1" stop-color="#FFB168"/>
</linearGradient>
<linearGradient id="paint10_linear_2142_323" x1="0" y1="0" x2="73.0527" y2="23.854" gradientUnits="userSpaceOnUse">
<stop stop-color="#713D00" stop-opacity="0.09"/>
<stop offset="1" stop-color="#FCCC93"/>
</linearGradient>
<linearGradient id="paint11_linear_2142_323" x1="-4.71931e-05" y1="-0.031811" x2="99.9483" y2="-58.1707" gradientUnits="userSpaceOnUse">
<stop stop-color="#FFA666"/>
<stop offset="1" stop-color="#FF9B3E"/>
</linearGradient>
<linearGradient id="paint12_linear_2142_323" x1="69.4685" y1="154.047" x2="-43.785" y2="108.284" gradientUnits="userSpaceOnUse">
<stop stop-color="#FFFAD5" stop-opacity="0.39"/>
<stop offset="1" stop-color="#FFB168"/>
</linearGradient>
<linearGradient id="paint13_linear_2142_323" x1="0" y1="0" x2="73.0527" y2="23.854" gradientUnits="userSpaceOnUse">
<stop stop-color="#713D00" stop-opacity="0.09"/>
<stop offset="1" stop-color="#FCCC93"/>
</linearGradient>
<linearGradient id="paint14_linear_2142_323" x1="-4.71931e-05" y1="-0.031811" x2="99.9483" y2="-58.1707" gradientUnits="userSpaceOnUse">
<stop stop-color="#FFA666"/>
<stop offset="1" stop-color="#FF9B3E"/>
</linearGradient>
<linearGradient id="paint15_linear_2142_323" x1="69.4685" y1="154.047" x2="-43.785" y2="108.284" gradientUnits="userSpaceOnUse">
<stop stop-color="#FFFAD5" stop-opacity="0.39"/>
<stop offset="1" stop-color="#FFB168"/>
</linearGradient>
<linearGradient id="paint16_linear_2142_323" x1="0" y1="0" x2="73.0527" y2="23.854" gradientUnits="userSpaceOnUse">
<stop stop-color="#713D00" stop-opacity="0.09"/>
<stop offset="1" stop-color="#FCCC93"/>
</linearGradient>
<linearGradient id="paint17_linear_2142_323" x1="-4.71931e-05" y1="-0.031811" x2="99.9483" y2="-58.1707" gradientUnits="userSpaceOnUse">
<stop stop-color="#FFA666"/>
<stop offset="1" stop-color="#FF9B3E"/>
</linearGradient>
<linearGradient id="paint18_linear_2142_323" x1="69.4685" y1="154.047" x2="-43.785" y2="108.284" gradientUnits="userSpaceOnUse">
<stop stop-color="#FFFAD5" stop-opacity="0.39"/>
<stop offset="1" stop-color="#FFB168"/>
</linearGradient>
<linearGradient id="paint19_linear_2142_323" x1="0" y1="0" x2="73.0527" y2="23.854" gradientUnits="userSpaceOnUse">
<stop stop-color="white" stop-opacity="0.09"/>
<stop offset="1" stop-color="#FCCC93"/>
</linearGradient>
<linearGradient id="paint20_linear_2142_323" x1="-4.71931e-05" y1="-0.031811" x2="99.9483" y2="-58.1707" gradientUnits="userSpaceOnUse">
<stop stop-color="#FFA666"/>
<stop offset="1" stop-color="#FF9B3E"/>
</linearGradient>
<linearGradient id="paint21_linear_2142_323" x1="69.4685" y1="154.047" x2="-43.785" y2="108.284" gradientUnits="userSpaceOnUse">
<stop stop-color="#FFFAD5" stop-opacity="0.39"/>
<stop offset="1" stop-color="#FFB168"/>
</linearGradient>
<linearGradient id="paint22_linear_2142_323" x1="0" y1="0" x2="73.0527" y2="23.854" gradientUnits="userSpaceOnUse">
<stop stop-color="white" stop-opacity="0.09"/>
<stop offset="1" stop-color="#FCCC93"/>
</linearGradient>
<linearGradient id="paint23_linear_2142_323" x1="-4.71931e-05" y1="-0.031811" x2="99.9483" y2="-58.1707" gradientUnits="userSpaceOnUse">
<stop stop-color="#FFA666"/>
<stop offset="1" stop-color="#FF9B3E"/>
</linearGradient>
<linearGradient id="paint24_linear_2142_323" x1="69.4685" y1="476.627" x2="-60.0672" y2="459.71" gradientUnits="userSpaceOnUse">
<stop stop-color="#FFFAD5" stop-opacity="0.39"/>
<stop offset="1" stop-color="#FFB168"/>
</linearGradient>
<linearGradient id="paint25_linear_2142_323" x1="0" y1="0" x2="73.0527" y2="23.854" gradientUnits="userSpaceOnUse">
<stop stop-color="white" stop-opacity="0.09"/>
<stop offset="1" stop-color="#FCCC93"/>
</linearGradient>
<linearGradient id="paint26_linear_2142_323" x1="-0.000145969" y1="-0.031811" x2="97.6494" y2="-175.72" gradientUnits="userSpaceOnUse">
<stop stop-color="#FFA666"/>
<stop offset="1" stop-color="#FF9B3E"/>
</linearGradient>
</defs>
</svg>
